<svg width="962" height="36" viewBox="0 0 962 36" fill="none" xmlns="http://www.w3.org/2000/svg">
<g clip-path="url(#clip0_1655_124)">
<path d="M50.3583 14.0892C50.3583 11.5112 50.4033 9.11116 50.5363 6.88916L43.7363 8.17816V8.80016L44.4033 8.88916C44.8923 8.93316 45.2033 9.11116 45.3813 9.37816C45.5593 9.68816 45.6913 10.1332 45.7813 10.8002C45.8703 12.0892 45.9593 15.0222 45.9143 19.6442C45.9143 24.2222 45.8703 27.1112 45.7813 28.2222C48.2253 28.7552 50.1363 28.9782 51.5593 28.9782C54.2253 28.9782 56.3143 28.2222 57.8253 26.6662C59.3363 25.1562 60.1363 23.0222 60.1363 20.4002C60.1363 18.3102 59.5583 16.5782 58.4033 15.2002C57.2473 13.8222 55.7813 13.1552 54.0473 13.1552C52.8923 13.1552 51.6923 13.4662 50.3593 14.0892H50.3583ZM50.4923 27.7782C50.4033 26.3552 50.3143 22.0882 50.3143 15.1112C50.7143 14.9782 51.2473 14.8892 51.9143 14.8892C52.9813 14.8892 53.8253 15.4222 54.4473 16.5332C55.0703 17.6442 55.3813 18.9782 55.3813 20.6662C55.3813 22.7562 55.0253 24.4442 54.3143 25.8662C53.6033 27.2442 52.7143 27.9562 51.6033 27.9562C51.2374 27.8717 50.8662 27.8123 50.4923 27.7782ZM18.2253 7.33316H0.447266V8.22216L1.38127 8.31116C2.09127 8.44416 2.58127 8.71116 2.89127 9.11116C3.20327 9.55516 3.38127 10.2662 3.42527 11.2442C3.78127 16.0442 3.78127 20.5342 3.42527 24.6662C3.33627 25.6442 3.15927 26.3562 2.89227 26.8002C2.58127 27.2442 2.09227 27.5102 1.38127 27.6002L0.447266 27.7332V28.6222H11.9143V27.7332L10.7143 27.6442C10.0033 27.5552 9.51427 27.2442 9.20327 26.8442C8.89227 26.4002 8.71426 25.6892 8.67027 24.7112C8.5202 22.685 8.44582 20.6539 8.44727 18.6222L10.8473 18.6662C12.1373 18.7112 13.0253 19.6892 13.4703 21.6442H14.3583V14.4002H13.4703C13.0253 16.3102 12.1803 17.2892 10.8473 17.3332L8.44727 17.3782C8.44727 13.3782 8.53726 10.5332 8.67027 8.80016H12.1803C14.6703 8.80016 16.3583 10.4002 17.3363 13.6002L18.4033 13.2892L18.2253 7.33316ZM16.1363 21.0222C16.1363 23.3332 16.8033 25.2442 18.0923 26.7552C19.3813 28.2662 21.2923 28.9782 23.6923 28.9782C26.0923 28.9782 28.0473 28.2222 29.4703 26.6662C30.8923 25.1562 31.5583 23.2442 31.5583 20.9332C31.5583 18.6222 30.8923 16.7112 29.6033 15.2002C28.3143 13.6892 26.4033 12.9782 24.0033 12.9782C21.6033 12.9782 19.6473 13.7332 18.2253 15.2882C16.8033 16.8002 16.1363 18.7112 16.1363 21.0222ZM26.0473 15.9552C26.5813 17.2452 26.8033 18.9332 26.8033 20.9782C26.8033 25.6882 25.8253 28.0002 23.9143 28.0002C22.9363 28.0002 22.1813 27.3332 21.6473 26.0002C21.1143 24.6662 20.8923 22.9782 20.8923 20.9782C20.8923 16.3112 21.8703 14.0002 23.7813 14.0002C24.7593 13.9552 25.5143 14.6222 26.0473 15.9552ZM63.6033 26.7552C65.0703 28.2222 66.9363 28.9782 69.1593 28.9782C70.5363 28.9782 71.7363 28.7112 72.8033 28.1332C73.8703 27.6002 74.7143 26.9332 75.2923 26.1332L74.8473 25.6002C73.8703 26.3552 72.7593 26.7102 71.4703 26.7102C69.6923 26.7102 68.3143 26.1332 67.3803 24.9332C66.4033 23.7332 65.9593 22.2222 66.0473 20.2662H75.5583C75.5583 18.1332 75.0253 16.4002 73.9143 15.0222C72.8033 13.6892 71.2473 13.0222 69.2473 13.0222C66.7583 13.0222 64.8473 13.8222 63.4703 15.3782C62.0923 16.9332 61.4253 18.8442 61.4253 21.1112C61.4253 23.4222 62.1363 25.2892 63.6033 26.7552ZM66.8923 15.6002C67.3813 14.5332 68.0023 14.0002 68.8473 14.0002C70.1813 14.0002 70.8473 15.6892 70.8473 19.1102L66.1373 19.2002C66.1813 17.8662 66.4033 16.6662 66.8923 15.6002ZM87.5133 13.8222C86.3133 13.2892 84.8023 12.9782 82.9803 12.9782C81.1133 12.9782 79.6463 13.4662 78.5353 14.4002C77.4253 15.3332 76.8463 16.4892 76.8463 17.8662C76.8463 19.0662 77.2023 20.0002 77.8693 20.6662C78.5353 21.3332 79.6023 21.9112 80.9793 22.4002C82.2243 22.8442 83.1133 23.2892 83.5573 23.6892C84.0023 24.1332 84.2693 24.6222 84.2693 25.2892C84.2693 25.9112 84.0463 26.4892 83.5573 26.9332C83.1133 27.4222 82.4913 27.6442 81.6913 27.6442C79.7353 27.6442 78.2693 26.2222 77.2463 23.3782L76.4913 23.6002L76.6693 28.0442C78.2693 28.6662 80.0463 28.9782 82.0023 28.9782C84.0463 28.9782 85.6023 28.5332 86.7573 27.6002C87.9133 26.7102 88.4913 25.4222 88.4913 23.8222C88.4913 22.7552 88.2243 21.8662 87.6463 21.2002C87.0693 20.5332 86.1363 19.9552 84.8023 19.4222C83.3353 18.8892 82.3133 18.4002 81.7803 17.9552C81.2463 17.5112 80.9803 16.9782 80.9803 16.3112C80.9803 15.6442 81.1583 15.1112 81.5583 14.6662C81.9583 14.2222 82.4463 14.0442 83.0683 14.0442C84.8463 14.0442 86.1353 15.3342 86.9353 17.8662L87.6913 17.6442L87.5133 13.8222ZM44.7583 13.4222C44.1353 13.1112 43.4683 12.9782 42.7133 12.9782C41.9583 12.9782 41.2023 13.2882 40.3583 13.9112C39.5133 14.5332 38.8913 15.3782 38.4023 16.5332L38.4463 12.9782L31.6933 14.3102V14.9322L32.3593 14.9772C33.2043 15.0652 33.6933 15.7322 33.7823 16.9322C34.0483 19.6882 34.0483 22.6212 33.7823 25.7322C33.6923 26.9322 33.2043 27.5542 32.3603 27.6882L31.6933 27.7772V28.6212H41.1153V27.7772L39.9153 27.6872C39.0713 27.5992 38.5823 26.9322 38.4933 25.7322C38.2176 23.0144 38.1878 20.2773 38.4043 17.5542C38.6713 17.1102 39.2483 16.8442 40.1373 16.7542C41.0273 16.6652 42.0483 16.9322 43.1153 17.5542L44.7603 13.4212L44.7583 13.4222Z" fill="white"/>
</g>
<g clip-path="url(#clip1_1655_124)">
<path fill-rule="evenodd" clip-rule="evenodd" d="M139.406 25.6121V10.3751C139.406 9.58815 139.59 8.98815 139.944 8.59415C140.115 8.40133 140.326 8.24816 140.563 8.14551C140.801 8.04286 141.057 7.99323 141.316 8.00015C141.896 8.00015 142.367 8.19415 142.726 8.58815C143.087 8.97515 143.264 9.57515 143.264 10.3751V25.6121C143.264 26.4121 143.081 27.0061 142.726 27.4061C142.548 27.6004 142.33 27.7541 142.087 27.8567C141.843 27.9592 141.58 28.0082 141.316 28.0001C140.761 28.0001 140.303 27.8001 139.943 27.3941C139.577 27.0001 139.399 26.4001 139.399 25.6121H139.405H139.406ZM244.405 28.0001C238.972 28.0001 234.558 23.5151 234.558 18.0061C234.558 12.4911 238.972 8.01215 244.405 8.01215C249.838 8.01215 254.252 12.4971 254.252 18.0061C254.252 23.5211 249.832 28.0001 244.405 28.0001ZM244.405 12.0601C241.169 12.0601 238.545 14.7271 238.545 18.0061C238.545 21.2841 241.169 23.9511 244.405 23.9511C247.64 23.9511 250.265 21.2841 250.265 18.0061C250.265 14.7271 247.64 12.0601 244.405 12.0601ZM200.19 28.0001C194.763 28.0001 190.343 23.5151 190.343 18.0061C190.343 12.4911 194.763 8.01215 200.19 8.01215C205.623 8.01215 210.042 12.4971 210.042 18.0061C210.042 23.5211 205.623 28.0001 200.196 28.0001H200.19ZM200.19 12.0601C196.96 12.0601 194.329 14.7271 194.329 18.0061C194.329 21.2841 196.96 23.9511 200.19 23.9511C203.425 23.9511 206.05 21.2841 206.05 18.0061C206.05 14.7271 203.425 12.0601 200.19 12.0601ZM231.402 18.0001C231.404 15.8823 230.736 13.8173 229.491 12.0971C228.62 10.8764 227.476 9.87204 226.149 9.16241C224.823 8.45278 223.349 8.05707 221.842 8.00615L221.549 8.00015L216.604 8.00615C215.762 8.00615 215.151 8.20015 214.773 8.59415C214.395 8.98215 214.205 9.61215 214.205 10.4841V25.5141C214.205 26.3881 214.389 27.0181 214.773 27.4061C215.151 27.8001 215.762 27.9941 216.605 27.9941H221.842C223.349 27.9435 224.823 27.548 226.15 26.8383C227.476 26.1286 228.62 25.1241 229.491 23.9031C230.736 22.1829 231.404 20.118 231.402 18.0001ZM222.245 23.9031C221.733 23.9316 221.22 23.9436 220.707 23.9391H218.125V12.0601H220.707C221.256 12.0601 221.775 12.0601 222.251 12.0971C223.082 12.2014 223.88 12.4816 224.592 12.9186C225.304 13.3556 225.913 13.9392 226.378 14.6301C227.053 15.6218 227.414 16.7912 227.415 17.9881V18.0121C227.411 19.2083 227.05 20.3763 226.378 21.3691C225.912 22.0607 225.302 22.6448 224.589 23.0819C223.876 23.5191 223.077 23.7992 222.245 23.9031ZM184.77 8.08515C184.417 7.97747 184.038 7.98861 183.693 8.11686C183.347 8.2451 183.054 8.48323 182.859 8.79415L176.906 17.9751L170.979 8.79415C170.782 8.48231 170.486 8.24412 170.138 8.11676C169.79 7.9894 169.41 7.98004 169.056 8.09015C168.699 8.20953 168.39 8.43818 168.173 8.74315C167.956 9.04812 167.841 9.41367 167.847 9.78715V26.0961C167.841 26.3243 167.881 26.5513 167.964 26.7642C168.047 26.977 168.172 27.1715 168.331 27.3364C168.49 27.5014 168.68 27.6335 168.89 27.7253C169.101 27.817 169.327 27.8666 169.557 27.8711C170.497 27.8711 171.267 27.0771 171.267 26.0961V15.6061L175.478 22.1211L175.491 22.1331V22.1451C175.521 22.1931 175.553 22.2391 175.589 22.2851L175.637 22.3271L175.704 22.4121L175.777 22.4721L175.826 22.5271L175.93 22.6061L175.96 22.6301L176.083 22.7031L176.113 22.7211L176.204 22.7691C176.375 22.8491 176.559 22.9031 176.742 22.9211H176.853L176.913 22.9271H176.974L177.077 22.9211C177.261 22.9031 177.444 22.8481 177.621 22.7691L177.712 22.7211L177.743 22.7031L177.859 22.6301L177.889 22.6061L177.993 22.5271L178.054 22.4721L178.115 22.4121L178.188 22.3271C178.234 22.2761 178.274 22.2211 178.311 22.1631L178.329 22.1451V22.1331L178.341 22.1211L182.554 15.6061V26.0961C182.548 26.3243 182.588 26.5512 182.671 26.764C182.754 26.9768 182.879 27.1712 183.037 27.3362C183.196 27.5011 183.386 27.6334 183.596 27.7254C183.807 27.8173 184.033 27.8672 184.263 27.8721C185.21 27.8721 185.972 27.0781 185.972 26.0971V9.78215C185.972 9.00615 185.484 8.31515 184.764 8.08515H184.77ZM162.042 27.3941H149.265C148.907 27.3903 148.558 27.2858 148.257 27.0927C147.957 26.8995 147.718 26.6258 147.568 26.3031C147.398 25.9347 147.332 25.527 147.379 25.1243C147.425 24.7215 147.581 24.339 147.831 24.0181L158.276 11.7151H149.644C148.704 11.7151 147.935 10.8851 147.935 9.86615C147.935 8.83615 148.704 8.21815 149.644 8.21815H161.286C161.957 8.21815 162.653 8.32715 163.257 9.00615C163.813 9.61815 163.788 10.9461 163.166 11.7461L153.074 23.6831H162.035C162.975 23.6831 163.665 24.5131 163.665 25.5381C163.665 26.5621 162.975 27.3931 162.035 27.3931H162.041L162.042 27.3941ZM126.685 28.0001C123.846 28.0001 121.276 26.8601 119.445 24.7881C117.827 22.9691 116.9 20.5631 116.9 18.1941C116.899 10.7691 122.984 8.00015 126.819 8.00015C130.592 8.00015 133.357 9.87815 133.473 9.95715C133.883 10.2471 134.165 10.6832 134.26 11.1746C134.354 11.666 134.254 12.1745 133.979 12.5941C133.849 12.7996 133.679 12.9769 133.478 13.1154C133.277 13.2538 133.05 13.3505 132.811 13.3997C132.571 13.449 132.324 13.4497 132.085 13.4018C131.845 13.3539 131.617 13.2585 131.416 13.1211C130.03 12.2815 128.442 11.8273 126.819 11.8061C124.413 11.8061 121.1 13.4121 121.1 18.1941C121.1 20.9141 123.095 24.1211 126.746 24.1211C128.803 24.1211 130.249 23.5631 131.092 23.0241V20.1941H128.242C127.743 20.1847 127.268 19.979 126.921 19.6223C126.574 19.2656 126.384 18.7869 126.392 18.2911C126.384 17.7956 126.574 17.317 126.92 16.9603C127.267 16.6036 127.742 16.3979 128.241 16.3881H132.942C133.967 16.3881 134.798 17.2361 134.798 18.2911V23.9511C134.797 24.4621 134.593 24.9521 134.23 25.3151C132.991 26.5501 130.269 28.0001 126.679 28.0001H126.685Z" fill="white"/>
</g>
<g clip-path="url(#clip2_1655_124)">
<path d="M314.251 14.0004H329.739V6H314.251V14.0004ZM283.303 6V14.0004H291.032V30H298.763V14.0004H306.52V6H283.303Z" fill="white"/>
<path d="M306.521 30.0001H329.74V21.9997H314.252V13.9993H306.521V30.0001ZM349.481 12.0421H338.106V15.3721H341.916V25.8061H345.671V15.3709H349.481V12.0421ZM353.76 15.2593C351.082 15.2593 349.093 17.0773 349.093 20.6581C349.093 23.8189 350.778 26.0281 353.843 26.0281C355.443 26.0281 356.741 25.6081 357.984 24.8533L356.658 22.5877C355.637 23.1193 354.92 23.3149 354.008 23.3149C353.069 23.3149 352.406 22.8109 352.269 21.6649H358.259C358.287 21.4969 358.287 21.2725 358.287 20.9653C358.315 17.1337 356.575 15.2593 353.76 15.2593ZM352.324 19.4545C352.435 18.4201 352.876 17.8885 353.677 17.8885C354.698 17.8885 355.057 18.4201 355.223 19.4545H352.324ZM364.941 23.1481C364.003 23.1481 363.505 22.3081 363.505 20.6581C363.505 19.0357 363.947 18.1117 364.858 18.1117C365.604 18.1117 365.936 18.5317 366.432 19.4557L368.834 17.6077C367.95 16.1545 366.846 15.2593 364.913 15.2593C361.656 15.2593 360.054 17.4409 360.054 20.6017C360.054 24.0697 361.849 26.0005 364.831 26.0005C366.625 26.0005 367.73 25.3009 368.917 23.5393L366.708 21.7765C366.045 22.7845 365.604 23.1469 364.941 23.1469V23.1481ZM376.979 15.2593C375.764 15.2593 375.046 15.6793 374.411 16.1545V11.4829L370.905 12.9097V25.8325H374.411V19.9297C374.411 18.6433 374.853 18.2797 375.598 18.2797C376.316 18.2797 376.759 18.6433 376.759 19.9585V25.8325H380.264V19.5109C380.264 16.7977 379.187 15.2593 376.979 15.2593ZM388.684 22.6993C387.056 22.6993 386.392 21.0205 386.392 18.9229C386.392 16.7413 387.083 15.1465 388.657 15.1465C389.899 15.1465 390.368 15.9577 390.838 17.2441L394.26 15.8737C393.322 13.2721 391.998 11.8177 388.657 11.8177C385.013 11.8177 382.445 14.5033 382.445 18.9217C382.445 23.0065 384.598 26.0281 388.629 26.0281C391.86 26.0281 393.378 24.2653 394.289 22.4761L391.115 20.7685C390.368 22.0561 389.871 22.6993 388.684 22.6993ZM399.921 16.2385V15.4825H396.415V25.8049H399.921V20.1817C399.921 18.9229 400.445 18.5041 401.3 18.5041C401.991 18.5041 402.488 18.8677 402.93 19.3705L403.758 15.7069C403.344 15.4549 402.847 15.2593 402.101 15.2593C401.19 15.2593 400.5 15.6505 399.921 16.2385ZM411.24 21.3841C411.24 22.6717 410.798 23.0353 410.08 23.0353C409.363 23.0353 408.921 22.6717 408.921 21.3565V15.4825H405.415V21.8041C405.415 24.5173 406.492 26.0281 408.728 26.0281C409.915 26.0281 410.661 25.6081 411.267 25.1329V25.8325H414.774V15.5113H411.267V21.3853L411.24 21.3841ZM423.36 15.2593C422.145 15.2593 421.427 15.6793 420.792 16.1545V15.4549H417.286V25.7761H420.792V19.8745C420.792 18.5881 421.234 18.2245 421.98 18.2245C422.698 18.2245 423.14 18.5881 423.14 19.9021V25.7761H426.645V19.4545C426.645 16.7977 425.596 15.2593 423.36 15.2593ZM433.603 23.1481C432.664 23.1481 432.167 22.3081 432.167 20.6581C432.167 19.0357 432.609 18.1117 433.492 18.1117C434.239 18.1117 434.569 18.5317 435.066 19.4557L437.468 17.6077C436.585 16.1545 435.481 15.2593 433.548 15.2593C430.29 15.2593 428.688 17.4409 428.688 20.6017C428.688 24.0697 430.483 26.0005 433.465 26.0005C435.26 26.0005 436.363 25.3009 437.551 23.5393L435.342 21.7765C434.735 22.7845 434.266 23.1469 433.603 23.1469V23.1481ZM445.641 15.2593C444.426 15.2593 443.708 15.6793 443.073 16.1545V11.4829L439.566 12.9097V25.8325H443.073V19.9297C443.073 18.6433 443.515 18.2797 444.26 18.2797C444.977 18.2797 445.419 18.6433 445.419 19.9585V25.8325H448.925V19.5109C448.954 16.7977 447.877 15.2593 445.641 15.2593Z" fill="white"/>
</g>
<g clip-path="url(#clip3_1655_124)">
<path d="M562.735 11C564.224 11.0404 566.028 11.1038 567.117 12.2115C567.76 12.9582 568.11 13.9055 568.103 14.8827C568.141 15.7453 567.805 16.5835 567.179 17.1904C566.739 17.5727 566.237 17.8799 565.693 18.099C566.36 18.2486 566.979 18.5589 567.494 19.0019C568.174 19.7509 568.537 20.7257 568.509 21.7279C568.533 22.6775 568.163 23.596 567.482 24.2721C566.305 25.4462 564.757 25.4663 563.068 25.5067H556.279V22.5471L557.601 22.5673V13.9394L556.279 13.9596V11H562.735ZM561.447 16.8356C562.641 16.8558 562.809 16.8558 563.103 16.7952C563.79 16.6516 564.269 16.0404 564.233 15.3529C564.267 14.8098 563.986 14.2945 563.506 14.0202C563.171 13.8558 562.962 13.8558 561.473 13.8356L561.447 16.8356ZM561.447 22.5471H562.624C563.439 22.5471 564.592 22.5269 564.592 21.151C564.628 20.5447 564.266 19.9834 563.692 19.7548C563.336 19.6106 563.168 19.6106 561.47 19.6106L561.447 22.5471Z" fill="#ED2025"/>
<path d="M579.59 21.8491C579.443 22.6106 579.252 23.6174 578.29 24.5203C577.327 25.4231 575.935 25.7549 574.579 25.7549C571.686 25.7549 569.15 24.3789 569.15 20.2279C569.136 19.5049 569.235 18.784 569.444 18.0904C570.18 15.6443 572.213 14.6289 574.446 14.6289C576.124 14.6289 577.486 15.2058 578.272 15.9847C579.867 17.5049 579.784 19.9712 579.761 20.9174H573.131C573.131 21.7395 573.155 23.1962 574.514 23.1962C575.647 23.1962 575.794 22.2529 575.859 21.8606L579.59 21.8491ZM575.865 18.8895C575.881 18.6048 575.845 18.3196 575.759 18.0472C575.572 17.554 575.079 17.238 574.544 17.2683C573.284 17.2683 573.243 18.4597 573.243 18.8895H575.865Z" fill="#ED2025"/>
<path d="M590.847 22.5471V25.5067H586.318L586.236 24.275C585.571 25.2501 584.433 25.8118 583.237 25.7548C581.286 25.7548 580.071 24.624 580.071 22.5673C580.024 21.4361 580.582 20.3626 581.542 19.7346C582.925 18.8086 585.074 18.8894 586.133 18.9096C586.161 18.5333 586.147 18.1551 586.092 17.7817C586.029 17.3219 585.62 16.9839 585.147 17C584.88 16.9964 584.622 17.1007 584.435 17.2884C584.188 17.573 584.069 17.9434 584.105 18.3153H580.448C580.448 17.7189 580.576 17.1291 580.824 16.5846C581.601 15.0442 583.573 14.5913 585.082 14.5913C586.507 14.5913 588.143 15.0009 589.043 15.9067C589.861 16.7057 589.944 17.6375 589.944 18.4134V22.5471H590.847ZM586.139 20.7817C585.745 20.735 585.345 20.7634 584.962 20.8653C584.363 21.0221 583.959 21.571 583.997 22.1778C583.997 22.8961 584.376 23.2884 584.941 23.2884C585.326 23.2934 585.684 23.0979 585.883 22.775C586.053 22.4806 586.141 22.147 586.136 21.8086L586.139 20.7817Z" fill="#ED2025"/>
<path d="M596.129 11.5337V14.8625H597.868V17.8106H596.129V21.6443C596.149 22.0337 596.19 22.8356 597.197 22.8356C597.39 22.8371 597.582 22.8028 597.762 22.7347V25.4462C597.01 25.6026 596.246 25.6924 595.478 25.7145C594.263 25.7145 593.339 25.3827 592.877 24.9327C592.288 24.3558 592.271 23.5972 592.271 23V17.8106H591.326V14.8625H592.565V12.3298L596.129 11.5337Z" fill="#ED2025"/>
<path d="M480.004 11H486.357V13.9596L485.056 13.9394L487.213 22.2413L489.541 13.9394L488.243 13.9596V11H494.07V13.9596L493.084 13.9394L489.414 25.5067H484.636L480.925 13.9394L480.004 13.9596V11Z" fill="white"/>
<path d="M503.166 21.8491C503.018 22.6106 502.83 23.6174 501.868 24.5203C500.906 25.4231 499.514 25.7549 498.157 25.7549C495.265 25.7549 492.728 24.3789 492.728 20.2279C492.713 19.5048 492.812 18.7838 493.022 18.0904C493.755 15.6443 495.788 14.6289 498.025 14.6289C499.702 14.6289 501.065 15.2058 501.85 15.9847C503.445 17.5049 503.36 19.9712 503.339 20.9174H496.709C496.709 21.7395 496.73 23.1962 498.092 23.1962C499.225 23.1962 499.373 22.2529 499.434 21.8606L503.166 21.8491ZM499.434 18.8895C499.45 18.605 499.415 18.3201 499.331 18.0472C499.144 17.553 498.65 17.2367 498.113 17.2683C496.857 17.2683 496.815 18.4597 496.815 18.8895H499.434Z" fill="white"/>
<path d="M514.903 22.5471H515.807V25.5067H511.004V19.2529C511.017 18.9907 510.989 18.7281 510.922 18.474C510.771 18.1201 510.409 17.898 510.018 17.9202C509.719 17.9203 509.433 18.0389 509.224 18.249C508.847 18.6183 508.824 19.0885 508.803 19.6913V22.576H509.539V25.5067H504.045V22.5471H504.928V17.8106H504.045V14.8625H508.344L508.468 16.4865C508.633 16.1641 508.853 15.8715 509.118 15.6211C509.852 14.923 510.841 14.5444 511.864 14.5711C512.996 14.5711 513.753 14.9836 514.15 15.3961C514.862 16.0942 514.883 16.9567 514.903 17.7038V22.5471Z" fill="white"/>
<path d="M521.004 11.5337V14.8625H522.743V17.8106H521.004V21.6443C521.024 22.0337 521.065 22.8356 522.072 22.8356C522.266 22.8373 522.459 22.803 522.64 22.7347V25.4462C521.887 25.6026 521.122 25.6924 520.353 25.7145C519.138 25.7145 518.217 25.3827 517.755 24.9327C517.166 24.3558 517.146 23.5972 517.146 23V17.8106H516.201V14.8625H517.44V12.3298L521.004 11.5337Z" fill="white"/>
<path d="M528.152 14.8623V21.0902C528.152 21.52 528.193 22.5065 529.179 22.5065C530.165 22.5065 530.206 21.4392 530.206 20.8854V17.8104L529.411 17.8306V14.8623H534.12V22.5671L535.02 22.5469V25.5065H530.55V24.3152C530.189 24.8355 529.676 25.2375 529.079 25.469C528.551 25.6733 527.989 25.778 527.422 25.7777C526.572 25.8186 525.74 25.5223 525.115 24.9556C524.297 24.1767 524.256 23.1469 524.232 22.1633V17.8104L523.35 17.8306V14.8623H528.152Z" fill="white"/>
<path d="M540.204 16.7114C540.371 16.1345 540.769 14.7412 542.852 14.7412C543.199 14.7356 543.546 14.7764 543.882 14.8624V18.2749C543.579 18.2046 543.269 18.1697 542.958 18.171C542.286 18.1425 541.627 18.3629 541.113 18.7884C540.61 19.2816 540.589 19.8355 540.589 20.8076L540.548 22.5384H541.825V25.5066H535.863V22.547H536.764V17.8105H535.863V14.8624H540.077L540.204 16.7114Z" fill="white"/>
<path d="M555.127 21.8491C554.982 22.6106 554.794 23.6174 553.829 24.5203C552.864 25.4231 551.475 25.7549 550.118 25.7549C547.226 25.7549 544.689 24.3789 544.689 20.2279C544.674 19.5048 544.773 18.7838 544.983 18.0904C545.716 15.6443 547.749 14.6289 549.971 14.6289C551.648 14.6289 553.011 15.2058 553.796 15.9847C555.388 17.5049 555.306 19.9712 555.285 20.9174H548.673C548.673 21.7395 548.694 23.1962 550.053 23.1962C551.186 23.1962 551.333 22.2529 551.398 21.8606L555.127 21.8491ZM551.398 18.8895C551.414 18.6048 551.378 18.3196 551.292 18.0472C551.107 17.5528 550.613 17.2361 550.077 17.2683C548.818 17.2683 548.776 18.4597 548.776 18.8895H551.398Z" fill="white"/>
</g>
<g clip-path="url(#clip4_1655_124)">
<path d="M627.004 6V30.9751H652.147V6H627.004ZM634.052 11.6023H639.403C640.98 11.6023 642.201 11.9104 643.068 12.5267C643.934 13.1302 644.367 14.0032 644.367 15.1459C644.367 15.8007 644.211 16.3721 643.901 16.86C643.591 17.3351 643.132 17.7139 642.525 17.9964C643.365 18.266 644.005 18.6961 644.444 19.2867C644.896 19.8645 645.123 20.5707 645.123 21.4053C645.123 22.227 644.903 22.9332 644.463 23.5238C644.037 24.1145 643.423 24.5702 642.622 24.8912C641.82 25.2122 640.857 25.3726 639.733 25.3726H634.052V11.6023ZM636.941 13.8362V17.2644H639.132C639.881 17.2644 640.45 17.1104 640.838 16.8023C641.238 16.4813 641.439 16.0383 641.439 15.4733C641.439 14.382 640.67 13.8362 639.132 13.8362H636.941ZM636.941 19.4216V23.1387H639.461C640.327 23.1387 640.993 22.9845 641.458 22.6763C641.924 22.3554 642.156 21.8996 642.156 21.309C642.156 20.0507 641.271 19.4216 639.5 19.4216H636.941ZM689.861 6V30.9751H715.004V6H689.861ZM703.465 11.3132C704.228 11.3132 704.945 11.3968 705.617 11.5637C706.302 11.7177 706.936 11.9488 707.517 12.257V14.9919C706.987 14.6324 706.412 14.3627 705.792 14.183C705.171 13.9904 704.519 13.8941 703.834 13.8941C702.89 13.8941 702.082 14.0738 701.41 14.4333C700.751 14.7928 700.24 15.3129 699.878 15.9934C699.529 16.6739 699.355 17.502 699.355 18.4778C699.355 19.4536 699.523 20.2882 699.859 20.9815C700.208 21.662 700.705 22.182 701.352 22.5415C702.011 22.901 702.806 23.0808 703.736 23.0808C705.158 23.0808 706.47 22.702 707.673 21.9444V24.6216C707.104 24.9426 706.445 25.1929 705.695 25.3726C704.945 25.5652 704.157 25.6615 703.329 25.6615C702.231 25.6615 701.242 25.5011 700.363 25.1801C699.484 24.8462 698.741 24.3711 698.133 23.7548C697.526 23.1385 697.06 22.3875 696.737 21.5016C696.414 20.6028 696.253 19.5949 696.253 18.4778C696.253 17.3864 696.421 16.4041 696.757 15.531C697.093 14.6451 697.577 13.8876 698.211 13.2585C698.844 12.6293 699.6 12.1478 700.479 11.814C701.371 11.4801 702.366 11.3132 703.465 11.3132ZM658.432 6V30.9751H683.575V6H658.432ZM665.48 11.6023H670.832C672.408 11.6023 673.63 11.9104 674.496 12.5267C675.362 13.1302 675.795 14.0032 675.795 15.1459C675.795 15.8007 675.64 16.3721 675.33 16.86C675.019 17.3351 674.561 17.7139 673.953 17.9964C674.793 18.266 675.433 18.6961 675.873 19.2867C676.325 19.8645 676.551 20.5707 676.551 21.4053C676.551 22.227 676.332 22.9332 675.892 23.5238C675.465 24.1145 674.851 24.5702 674.05 24.8912C673.249 25.2122 672.286 25.3726 671.161 25.3726H665.48V11.6023ZM668.369 13.8362V17.2644H670.56C671.31 17.2644 671.879 17.1104 672.266 16.8023C672.667 16.4813 672.867 16.0383 672.867 15.4733C672.867 14.382 672.098 13.8362 670.56 13.8362H668.369ZM668.369 19.4216V23.1387H670.89C671.756 23.1387 672.421 22.9845 672.887 22.6763C673.352 22.3554 673.585 21.8996 673.585 21.309C673.585 20.0507 672.699 19.4216 670.928 19.4216H668.369Z" fill="white"/>
</g>
<g clip-path="url(#clip5_1655_124)">
<path d="M767.508 3.44579C766.806 1.69533 765.098 -0.195152 761.898 0.0645485C757.822 0.507522 756.552 4.41253 757.168 6.74213C755.544 5.6432 752.784 5.15999 750.374 7.22322C747.263 10.3407 748.927 14.5568 750.637 15.568C748.752 15.3936 745.773 16.6668 745.114 19.9973C744.413 24.1323 747.567 26.5429 750.637 26.5429H784.687C788.237 26.5429 790.207 23.4722 789.986 20.5763C789.638 16.7969 786.178 15.3468 784.291 15.6576C785.868 14.7782 787.974 10.6473 784.772 7.39989C782.23 4.98307 778.99 5.86247 777.85 6.91655C778.464 4.8976 777.457 0.724164 773.335 0.0640993C773.05 0.0322062 772.775 0.0151367 772.514 0.0151367C769.367 0.0155859 767.952 2.31522 767.508 3.44579Z" fill="white"/>
<path d="M750.941 7.881C749.143 9.50773 748.489 13.1937 751.729 15.3485L764.657 24.2149L758.389 9.85901C757.075 6.47135 753.482 5.73261 750.941 7.881Z" fill="#F37021"/>
<path d="M762.07 0.901637C759.969 0.944439 756.813 3.44602 758.218 7.266L764.701 22.5507L766.979 6.47413C767.506 2.47948 764.482 0.635455 762.07 0.901637Z" fill="#CC004C"/>
<path d="M767.991 5.86068H769.217C769.217 5.86068 769.871 5.86068 769.96 6.16941C769.478 6.56323 768.165 6.61258 768.339 8.71617L770.4 22.5482L776.839 7.22342C778.156 3.80169 775.392 0.944021 772.939 0.856685C772.825 0.848471 772.71 0.841797 772.591 0.841797C770.39 0.841797 767.867 2.44081 767.991 5.86068Z" fill="#6460AA"/>
<path d="M776.578 9.98963L770.488 24.1733L783.413 15.2601C786.392 13.1477 785.911 9.77049 784.244 8.10114C783.545 7.31543 782.261 6.7085 780.901 6.7085C779.294 6.70818 777.575 7.55998 776.578 9.98963Z" fill="#0089D0"/>
<path d="M781.966 17.2781L769.828 25.753H784.773C787.839 25.753 789.809 22.5928 788.933 19.6928C788.347 17.87 786.611 16.4391 784.596 16.437C783.748 16.4373 782.849 16.6927 781.966 17.2781Z" fill="#0DB14B"/>
<path d="M750.592 25.7531H765.317L753.176 17.2782C750.371 15.4768 747.218 16.5309 746.079 19.5203C745.114 22.9423 747.524 25.7531 750.592 25.7531Z" fill="#FCB711"/>
<path d="M745.062 31.8863C745.062 33.3296 746.243 35.9568 750.75 35.9568C754.905 35.9568 756.217 34.0508 756.217 33.1769H753C753 33.1769 752.848 34.3315 751.033 34.3315C749.217 34.3315 748.726 32.8164 748.726 31.9402C748.726 31.0674 749.217 29.6341 751.033 29.6341C752.848 29.6341 753 30.6394 753 30.6394H756.217C756.217 29.7644 755.255 27.8853 750.75 27.8853C746.243 27.8853 745.062 30.6832 745.062 31.8863Z" fill="white"/>
<path d="M778.801 31.8863C778.801 33.3296 779.982 35.9568 784.488 35.9568C788.643 35.9568 789.956 34.0508 789.956 33.1769H786.741C786.741 33.1769 786.588 34.3315 784.772 34.3315C782.956 34.3315 782.465 32.8164 782.465 31.9402C782.465 31.0674 782.956 29.6341 784.772 29.6341C786.588 29.6341 786.741 30.6394 786.741 30.6394H789.956C789.956 29.7644 788.994 27.8853 784.488 27.8853C779.982 27.8853 778.801 30.6832 778.801 31.8863Z" fill="white"/>
<path d="M765.01 28.02V32.9061L761.266 28.02H757.055V35.7591H759.942V30.8169L763.62 35.7591H767.898V28.02H765.01Z" fill="white"/>
<path d="M774.262 33.9102V33.9204H771.856V32.4994H774.262V32.504C774.776 32.504 775.191 32.8196 775.191 33.2083C775.191 33.5959 774.776 33.9102 774.262 33.9102ZM771.879 29.5252H774.197V29.5285C774.589 29.5285 774.908 29.7868 774.908 30.1047C774.908 30.4238 774.589 30.6798 774.197 30.6798V30.6833H771.879V29.5252ZM776.625 31.6447C777.151 31.6447 778.25 31.0348 778.25 29.8531C778.25 28.1705 775.115 28.02 774.634 28.02H768.859V35.7591H774.634C777.412 35.7591 778.528 34.882 778.528 33.4172C778.528 31.9524 776.625 31.6447 776.625 31.6447Z" fill="white"/>
</g>
<g clip-path="url(#clip6_1655_124)">
<path fill-rule="evenodd" clip-rule="evenodd" d="M841.055 7.12661C840.914 7.09739 840.773 7.0487 840.632 7H839.817C839.02 7.19757 838.392 7.66778 837.752 8.14727L837.684 8.19796C836.617 9.00635 835.158 9.00635 834.152 8.18822C833.518 7.67202 832.874 7.22401 832.069 7H831.264C830.409 7.19479 829.745 7.6915 829.07 8.19796C827.994 9.00635 826.525 9.00635 825.508 8.159C824.874 7.63307 824.22 7.20453 823.415 7H822.61C822.419 7.06818 822.218 7.13635 822.016 7.20452V7.20453L822.016 7.20453C821.04 7.55515 820.437 8.23691 820.135 9.18164C820.115 9.24007 820.092 9.29853 820.069 9.35696C820.047 9.41539 820.024 9.47382 820.004 9.53225V10.3114C820.205 11.1198 820.668 11.7529 821.242 12.3567C822.147 13.3599 822.157 14.85 821.262 15.8337C820.698 16.4473 820.235 17.0901 820.014 17.8887V18.6679C820.225 19.4665 820.698 20.0996 821.262 20.7229C822.137 21.6968 822.147 23.187 821.272 24.1609C820.708 24.794 820.215 25.4368 820.014 26.2647V27.0439C820.094 27.2289 820.165 27.4236 820.235 27.6184H820.235C820.598 28.5632 821.292 29.1573 822.268 29.4495C822.328 29.469 822.389 29.4909 822.449 29.5128C822.51 29.5347 822.57 29.5566 822.63 29.5761H823.435C824.26 29.3716 824.915 28.9138 825.559 28.3684C826.585 27.5016 828.135 27.5016 829.151 28.3781C829.795 28.9236 830.459 29.3716 831.284 29.5761H832.089C832.172 29.5495 832.254 29.5188 832.338 29.4877L832.338 29.4876H832.338C832.438 29.4507 832.539 29.4131 832.643 29.3813C833.981 28.9333 834.867 27.5795 834.655 26.2939C834.414 24.794 833.277 23.7812 831.777 23.7227C830.902 23.6935 830.167 23.9759 829.533 24.5408C828.678 25.3102 827.692 25.6706 826.535 25.3491C824.291 24.7356 823.506 22.0865 825.096 20.4405C825.81 19.7002 826.132 18.8627 826.021 17.8693C825.936 17.1255 825.484 16.5807 825.028 16.0312L825.028 16.0311L825.028 16.031C825 15.9978 824.972 15.9644 824.945 15.9311C823.274 13.915 824.844 11.5775 826.645 11.149C827.752 10.8861 828.678 11.2172 829.483 11.9769C830.711 13.1261 832.562 13.2138 833.689 12.0645C834.957 10.7789 836.939 10.7399 838.217 12.0743C839.063 12.9508 840.472 13.0969 841.578 12.571C842.736 12.0158 843.36 10.8861 843.229 9.55173C843.128 8.45119 842.212 7.43827 841.055 7.12661ZM840.27 25.7094C839.677 25.6997 839.224 26.1186 839.224 26.7029C839.224 27.2873 839.666 27.7256 840.25 27.7158C840.824 27.7158 841.307 27.2386 841.297 26.6932C841.287 26.1672 840.824 25.7192 840.27 25.7094ZM839.224 18.5121C839.234 17.9277 839.666 17.5187 840.28 17.5284C840.844 17.5382 841.297 17.9862 841.297 18.5218C841.297 19.0673 840.804 19.5446 840.24 19.5446C839.666 19.5347 839.224 19.077 839.224 18.5121ZM831.636 19.603C832.22 19.6128 832.673 19.1745 832.673 18.5999C832.683 18.0155 832.24 17.5869 831.636 17.5966C831.073 17.6064 830.62 18.035 830.6 18.5707C830.58 19.116 831.063 19.5933 831.636 19.603Z" fill="#F8BF1E"/>
<path d="M854.782 28.709C857.417 28.709 859.322 27.9994 860.757 26.6559C862.036 25.4647 862.871 23.8171 863.001 22.0175H858.383C858.174 23.7664 856.817 25.0338 854.756 25.0338C851.99 25.0338 850.267 22.6258 850.267 19.3054C850.267 16.0103 851.703 13.5517 854.729 13.5517C856.713 13.5517 858.017 14.7937 858.252 16.4159H862.871C862.636 14.3881 861.696 12.6138 860.079 11.4225C858.748 10.434 856.921 9.82568 854.756 9.82568C849.198 9.82568 845.57 13.9065 845.57 19.3054C845.57 24.7296 849.302 28.709 854.782 28.709ZM871.167 25.7688C869.314 25.7688 868.349 24.1973 868.349 21.8401C868.349 19.4828 869.314 17.8859 871.167 17.8859C873.019 17.8859 874.011 19.4828 874.011 21.8401C874.011 24.1973 873.019 25.7688 871.167 25.7688ZM871.193 28.709C875.498 28.709 878.317 25.7434 878.317 21.8401C878.317 17.9366 875.498 14.9711 871.193 14.9711C866.913 14.9711 864.043 17.9366 864.043 21.8401C864.043 25.7434 866.913 28.709 871.193 28.709ZM905.673 24.5253V13.9304H908.439C911.335 13.9304 912.98 16.0595 912.98 19.3546C912.98 22.6751 911.413 24.5253 908.387 24.5253H905.673ZM901.054 28.302H908.726C911.075 28.302 912.954 27.719 914.415 26.6545C916.502 25.1083 917.651 22.5483 917.651 19.3546C917.651 13.8036 914.18 10.179 909.013 10.179H901.054V28.302ZM925.715 28.6822C927.412 28.6822 928.769 28.2513 929.891 27.4909C931.065 26.7052 931.848 25.5899 932.135 24.4239H927.986C927.62 25.235 926.89 25.7166 925.768 25.7166C924.02 25.7166 923.028 24.6267 922.767 22.8778H932.37C932.396 20.2417 931.613 17.9859 930.022 16.5664C928.873 15.5526 927.36 14.9442 925.455 14.9442C921.384 14.9442 918.592 17.9098 918.592 21.7879C918.592 25.7166 921.306 28.6822 925.715 28.6822ZM922.793 20.4191C923.081 18.873 923.916 17.8845 925.533 17.8845C926.916 17.8845 927.908 18.873 928.064 20.4191H922.793ZM939.482 28.7075C942.979 28.7075 945.562 27.2375 945.562 24.3986C945.562 21.0781 942.796 20.4952 940.448 20.115C938.752 19.8108 937.238 19.6841 937.238 18.7716C937.238 17.9605 938.047 17.5803 939.091 17.5803C940.265 17.5803 941.075 17.9352 941.231 19.1011H945.145C944.936 16.541 942.9 14.9442 939.117 14.9442C935.96 14.9442 933.35 16.3637 933.35 19.1011C933.35 22.1427 935.829 22.751 938.151 23.1313C939.926 23.4354 941.544 23.5621 941.544 24.7281C941.544 25.5646 940.735 26.0208 939.456 26.0208C938.047 26.0208 937.16 25.3871 937.004 24.0944H932.985C933.116 26.9586 935.568 28.7075 939.482 28.7075ZM946.943 28.302H951.144V24.3226L952.423 23.0045L955.633 28.302H960.564L955.319 20.1911L960.016 15.3244H955.111L951.144 19.7095V10.179H946.943V28.302Z" fill="white"/>
<path d="M890.548 28.3021H886.295V15.3245H890.392V17.0988H890.47C891.462 15.7047 892.74 14.9443 894.593 14.9443C897.516 14.9443 899.238 16.972 899.238 19.8616V28.3021H894.984V20.698C894.984 19.3294 894.28 18.3915 892.897 18.3915C891.488 18.3915 890.548 19.5321 890.548 21.1289V28.3021Z" fill="white"/>
<path d="M879.244 17.9912L879.244 15.353H884.493V28.3342H880.446V17.9912H879.244Z" fill="white"/>
<path d="M882.168 14.2242C883.452 14.2242 884.492 13.2134 884.492 11.9666C884.492 10.7198 883.452 9.70898 882.168 9.70898C880.884 9.70898 879.844 10.7198 879.844 11.9666C879.844 13.2134 880.884 14.2242 882.168 14.2242Z" fill="white"/>
</g>
<defs>
<clipPath id="clip0_1655_124">
<rect width="89" height="24" fill="white" transform="translate(0.00390625 6)"/>
</clipPath>
<clipPath id="clip1_1655_124">
<rect width="139" height="20" fill="white" transform="translate(116.004 8)"/>
</clipPath>
<clipPath id="clip2_1655_124">
<rect width="167" height="24" fill="white" transform="translate(283.004 6)"/>
</clipPath>
<clipPath id="clip3_1655_124">
<rect width="118" height="15" fill="white" transform="translate(480.004 11)"/>
</clipPath>
<clipPath id="clip4_1655_124">
<rect width="88" height="25" fill="white" transform="translate(627.004 6)"/>
</clipPath>
<clipPath id="clip5_1655_124">
<rect width="45" height="36" fill="white" transform="translate(745.004)"/>
</clipPath>
<clipPath id="clip6_1655_124">
<rect width="141" height="23" fill="white" transform="translate(820.004 7)"/>
</clipPath>
</defs>
</svg>