<svg width="25" height="24" viewBox="0 0 25 24" fill="none" xmlns="http://www.w3.org/2000/svg">
<path d="M8.00391 16C8.00391 15.7348 7.89855 15.4804 7.71101 15.2929C7.52348 15.1054 7.26912 15 7.00391 15C6.73869 15 6.48434 15.1054 6.2968 15.2929C6.10926 15.4804 6.00391 15.7348 6.00391 16C6.00549 17.3256 6.53279 18.5964 7.47013 19.5338C8.40746 20.4711 9.67831 20.9984 11.0039 21V22C11.0039 22.2652 11.1093 22.5196 11.2968 22.7071C11.4843 22.8946 11.7387 23 12.0039 23C12.2691 23 12.5235 22.8946 12.711 22.7071C12.8985 22.5196 13.0039 22.2652 13.0039 22V21C14.33 21 15.6018 20.4732 16.5394 19.5355C17.4771 18.5979 18.0039 17.3261 18.0039 16C18.0039 14.6739 17.4771 13.4021 16.5394 12.4645C15.6018 11.5268 14.33 11 13.0039 11V5C13.7996 5 14.5626 5.31607 15.1252 5.87868C15.6878 6.44129 16.0039 7.20435 16.0039 8C16.0039 8.26522 16.1093 8.51957 16.2968 8.70711C16.4843 8.89464 16.7387 9 17.0039 9C17.2691 9 17.5235 8.89464 17.711 8.70711C17.8986 8.51957 18.0039 8.26522 18.0039 8C18.0023 6.67441 17.475 5.40356 16.5377 4.46622C15.6003 3.52888 14.3295 3.00159 13.0039 3V2C13.0039 1.73478 12.8985 1.48043 12.711 1.29289C12.5235 1.10536 12.2691 1 12.0039 1C11.7387 1 11.4843 1.10536 11.2968 1.29289C11.1093 1.48043 11.0039 1.73478 11.0039 2V3C9.67782 3 8.40605 3.52678 7.46837 4.46447C6.53069 5.40215 6.00391 6.67392 6.00391 8C6.00391 9.32608 6.53069 10.5979 7.46837 11.5355C8.40605 12.4732 9.67782 13 11.0039 13V19C10.2083 19 9.44519 18.6839 8.88259 18.1213C8.31998 17.5587 8.00391 16.7956 8.00391 16ZM13.0039 13C13.7996 13 14.5626 13.3161 15.1252 13.8787C15.6878 14.4413 16.0039 15.2044 16.0039 16C16.0039 16.7956 15.6878 17.5587 15.1252 18.1213C14.5626 18.6839 13.7996 19 13.0039 19V13ZM8.00391 8C8.00391 7.20435 8.31998 6.44129 8.88259 5.87868C9.44519 5.31607 10.2083 5 11.0039 5V11C10.2083 11 9.44519 10.6839 8.88259 10.1213C8.31998 9.55871 8.00391 8.79565 8.00391 8Z" fill="#FD356F"/>
</svg>
