<svg width="41" height="40" viewBox="0 0 41 40" fill="none" xmlns="http://www.w3.org/2000/svg">
<rect x="0.00390625" width="40" height="40" rx="10" fill="#DBF9ED"/>
<path d="M12.0039 31C11.7387 31 11.4843 30.8946 11.2968 30.7071C11.1093 30.5196 11.0039 30.2652 11.0039 30V27C11.0039 26.7348 11.1093 26.4804 11.2968 26.2929C11.4843 26.1054 11.7387 26 12.0039 26C12.2691 26 12.5235 26.1054 12.711 26.2929C12.8985 26.4804 13.0039 26.7348 13.0039 27V30C13.0039 30.2652 12.8985 30.5196 12.711 30.7071C12.5235 30.8946 12.2691 31 12.0039 31ZM21.0039 30V23C21.0039 22.7348 20.8985 22.4804 20.711 22.2929C20.5235 22.1054 20.2691 22 20.0039 22C19.7387 22 19.4843 22.1054 19.2968 22.2929C19.1093 22.4804 19.0039 22.7348 19.0039 23V30C19.0039 30.2652 19.1093 30.5196 19.2968 30.7071C19.4843 30.8946 19.7387 31 20.0039 31C20.2691 31 20.5235 30.8946 20.711 30.7071C20.8985 30.5196 21.0039 30.2652 21.0039 30ZM28.0039 19C27.7387 19 27.4843 19.1054 27.2968 19.2929C27.1093 19.4804 27.0039 19.7348 27.0039 20V30C27.0039 30.2652 27.1093 30.5196 27.2968 30.7071C27.4843 30.8946 27.7387 31 28.0039 31C28.2691 31 28.5235 30.8946 28.711 30.7071C28.8986 30.5196 29.0039 30.2652 29.0039 30V20C29.0039 19.7348 28.8986 19.4804 28.711 19.2929C28.5235 19.1054 28.2691 19 28.0039 19ZM28.3859 9.077C28.2649 9.0263 28.1351 9.00013 28.0039 9H24.0039C23.7387 9 23.4843 9.10536 23.2968 9.29289C23.1093 9.48043 23.0039 9.73478 23.0039 10C23.0039 10.2652 23.1093 10.5196 23.2968 10.7071C23.4843 10.8946 23.7387 11 24.0039 11H25.5899L20.0039 16.586L16.7109 13.293C16.5234 13.1055 16.2691 13.0002 16.0039 13.0002C15.7387 13.0002 15.4844 13.1055 15.2969 13.293L11.2969 17.293C11.1147 17.4816 11.014 17.7342 11.0162 17.9964C11.0185 18.2586 11.1237 18.5094 11.3091 18.6948C11.4945 18.8802 11.7453 18.9854 12.0075 18.9877C12.2697 18.99 12.5223 18.8892 12.7109 18.707L16.0039 15.414L19.2969 18.707C19.4844 18.8945 19.7387 18.9998 20.0039 18.9998C20.2691 18.9998 20.5234 18.8945 20.7109 18.707L27.0039 12.414V14C27.0039 14.2652 27.1093 14.5196 27.2968 14.7071C27.4843 14.8946 27.7387 15 28.0039 15C28.2691 15 28.5235 14.8946 28.711 14.7071C28.8986 14.5196 29.0039 14.2652 29.0039 14V10C29.0037 9.80229 28.9448 9.60909 28.8348 9.4448C28.7248 9.28052 28.5686 9.15252 28.3859 9.077Z" fill="#00C47A"/>
</svg>
