<svg width="41" height="40" viewBox="0 0 41 40" fill="none" xmlns="http://www.w3.org/2000/svg">
<rect x="0.00390625" width="40" height="40" rx="10" fill="#DBEDFF"/>
<path d="M29.0042 21.859V20C29.0042 19.7348 28.8988 19.4804 28.7113 19.2929C28.5237 19.1054 28.2694 19 28.0042 19C27.739 19 27.4846 19.1054 27.2971 19.2929C27.1095 19.4804 27.0042 19.7348 27.0042 20V21H13.0042V12H20.0042C20.2694 12 20.5237 11.8946 20.7113 11.7071C20.8988 11.5196 21.0042 11.2652 21.0042 11C21.0042 10.7348 20.8988 10.4804 20.7113 10.2929C20.5237 10.1054 20.2694 10 20.0042 10H13.0042C12.4737 10 11.965 10.2107 11.59 10.5858C11.2149 10.9609 11.0042 11.4696 11.0042 12V21.859L9.04218 28.726C8.99978 28.8748 8.99249 29.0314 9.0209 29.1836C9.0493 29.3357 9.11262 29.4791 9.20586 29.6026C9.29911 29.7261 9.41974 29.8263 9.55827 29.8952C9.6968 29.9642 9.84944 30 10.0042 30H30.0042C30.1589 30 30.3116 29.9642 30.4501 29.8952C30.5886 29.8263 30.7092 29.7261 30.8025 29.6026C30.8957 29.4791 30.9591 29.3357 30.9875 29.1836C31.0159 29.0314 31.0086 28.8748 30.9662 28.726L29.0042 21.859ZM11.3302 28L12.7582 23H27.2502L28.6782 28H11.3302ZM30.6042 12.2H29.9762C29.8931 12.1982 29.8124 12.1715 29.7447 12.1234C29.6769 12.0753 29.6252 12.0079 29.5962 11.93V11.925C29.5623 11.8494 29.5518 11.7654 29.566 11.6837C29.5803 11.6021 29.6186 11.5266 29.6762 11.467L30.1202 11.023C30.1581 10.9858 30.1883 10.9413 30.2088 10.8923C30.2294 10.8433 30.24 10.7907 30.24 10.7375C30.24 10.6843 30.2294 10.6317 30.2088 10.5827C30.1883 10.5337 30.1581 10.4892 30.1202 10.452L29.5592 9.891C29.5219 9.85305 29.4775 9.82291 29.4285 9.80234C29.3795 9.78176 29.3268 9.77116 29.2737 9.77116C29.2205 9.77116 29.1679 9.78176 29.1189 9.80234C29.0698 9.82291 29.0254 9.85305 28.9882 9.891L28.5442 10.335C28.4846 10.3926 28.409 10.4309 28.3273 10.445C28.2457 10.4591 28.1616 10.4483 28.0862 10.414H28.0802C28.0026 10.3847 27.9355 10.3329 27.8875 10.2652C27.8396 10.1974 27.813 10.1169 27.8112 10.034V9.4C27.8112 9.29391 27.769 9.19217 27.694 9.11716C27.619 9.04214 27.5173 9 27.4112 9H26.6042C26.4981 9 26.3963 9.04214 26.3213 9.11716C26.2463 9.19217 26.2042 9.29391 26.2042 9.4V10.028C26.2023 10.1109 26.1757 10.1914 26.1278 10.2592C26.0799 10.3269 26.0128 10.3787 25.9352 10.408H25.9292C25.8537 10.4423 25.7697 10.4531 25.688 10.439C25.6063 10.4249 25.5308 10.3866 25.4712 10.329L25.0272 9.885C24.9899 9.84705 24.9455 9.81691 24.8965 9.79633C24.8475 9.77576 24.7948 9.76516 24.7417 9.76516C24.6885 9.76516 24.6359 9.77576 24.5869 9.79633C24.5378 9.81691 24.4934 9.84705 24.4562 9.885L23.8952 10.446C23.8572 10.4832 23.8271 10.5277 23.8065 10.5767C23.7859 10.6257 23.7753 10.6783 23.7753 10.7315C23.7753 10.7847 23.7859 10.8373 23.8065 10.8863C23.8271 10.9353 23.8572 10.9798 23.8952 11.017L24.3392 11.461C24.3967 11.5206 24.4351 11.5961 24.4493 11.6777C24.4636 11.7594 24.4531 11.8434 24.4192 11.919V11.924C24.3902 12.0019 24.3384 12.0693 24.2707 12.1174C24.2029 12.1655 24.1223 12.1922 24.0392 12.194H23.4042C23.2981 12.194 23.1963 12.2361 23.1213 12.3112C23.0463 12.3862 23.0042 12.4879 23.0042 12.594V13.4C23.0042 13.5061 23.0463 13.6078 23.1213 13.6828C23.1963 13.7579 23.2981 13.8 23.4042 13.8H24.0322C24.1151 13.8018 24.1956 13.8284 24.2633 13.8764C24.331 13.9243 24.3829 13.9914 24.4122 14.069V14.075C24.4461 14.1506 24.4566 14.2346 24.4423 14.3163C24.4281 14.3979 24.3897 14.4734 24.3322 14.533L23.8882 14.977C23.8502 15.0142 23.8201 15.0587 23.7995 15.1077C23.7789 15.1567 23.7683 15.2093 23.7683 15.2625C23.7683 15.3157 23.7789 15.3683 23.7995 15.4173C23.8201 15.4663 23.8502 15.5108 23.8882 15.548L24.4492 16.109C24.4864 16.1469 24.5308 16.1771 24.5799 16.1977C24.6289 16.2182 24.6815 16.2288 24.7347 16.2288C24.7878 16.2288 24.8405 16.2182 24.8895 16.1977C24.9385 16.1771 24.9829 16.1469 25.0202 16.109L25.4642 15.665C25.5238 15.6075 25.5993 15.5691 25.6809 15.5548C25.7625 15.5406 25.8466 15.5511 25.9222 15.585H25.9282C26.0059 15.6141 26.0732 15.6658 26.1212 15.7336C26.1691 15.8014 26.1956 15.882 26.1972 15.965V16.6C26.1972 16.7061 26.2393 16.8078 26.3143 16.8828C26.3893 16.9579 26.4911 17 26.5972 17H27.4042C27.5103 17 27.612 16.9579 27.687 16.8828C27.762 16.8078 27.8042 16.7061 27.8042 16.6V15.968C27.8057 15.885 27.8322 15.8044 27.8802 15.7366C27.9282 15.6688 27.9954 15.6171 28.0732 15.588H28.0792C28.1548 15.5541 28.2388 15.5436 28.3204 15.5578C28.4021 15.5721 28.4775 15.6105 28.5372 15.668L28.9812 16.112C29.0184 16.1499 29.0628 16.1801 29.1119 16.2007C29.1609 16.2212 29.2135 16.2318 29.2667 16.2318C29.3198 16.2318 29.3725 16.2212 29.4215 16.2007C29.4705 16.1801 29.5149 16.1499 29.5522 16.112L30.1132 15.551C30.1511 15.5138 30.1813 15.4693 30.2018 15.4203C30.2224 15.3713 30.233 15.3187 30.233 15.2655C30.233 15.2123 30.2224 15.1597 30.2018 15.1107C30.1813 15.0617 30.1511 15.0172 30.1132 14.98L29.6692 14.536C29.6116 14.4764 29.5733 14.4009 29.559 14.3193C29.5448 14.2376 29.5553 14.1536 29.5892 14.078V14.072C29.6185 13.9944 29.6703 13.9273 29.738 13.8794C29.8057 13.8314 29.8862 13.8048 29.9692 13.803H30.6042C30.6567 13.803 30.7087 13.7927 30.7572 13.7726C30.8058 13.7524 30.8499 13.723 30.887 13.6858C30.9242 13.6487 30.9536 13.6046 30.9737 13.5561C30.9938 13.5075 31.0042 13.4555 31.0042 13.403V12.6C31.0042 12.4939 30.962 12.3922 30.887 12.3172C30.812 12.2421 30.7103 12.2 30.6042 12.2ZM27.0042 14.2C26.7668 14.2 26.5348 14.1296 26.3375 13.9978C26.1402 13.8659 25.9863 13.6785 25.8955 13.4592C25.8047 13.2399 25.7809 12.9987 25.8272 12.7659C25.8735 12.5331 25.9878 12.3193 26.1556 12.1515C26.3235 11.9836 26.5373 11.8694 26.7701 11.8231C27.0028 11.7768 27.2441 11.8005 27.4634 11.8913C27.6827 11.9822 27.8701 12.136 28.0019 12.3333C28.1338 12.5307 28.2042 12.7627 28.2042 13C28.2042 13.3183 28.0777 13.6235 27.8527 13.8485C27.6277 14.0736 27.3224 14.2 27.0042 14.2Z" fill="#2895FF"/>
</svg>
