<svg width="41" height="40" viewBox="0 0 41 40" fill="none" xmlns="http://www.w3.org/2000/svg">
<rect x="0.00390625" width="40" height="40" rx="10" fill="#FFFAD9"/>
<path d="M30.0039 13H27.0039V10C26.9961 9.73725 26.8883 9.4874 26.7024 9.30152C26.5165 9.11565 26.2667 9.00779 26.0039 9H14.0039C13.7412 9.00779 13.4913 9.11565 13.3054 9.30152C13.1196 9.4874 13.0117 9.73725 13.0039 10V13H10.0039C9.73869 13 9.48434 13.1054 9.2968 13.2929C9.10926 13.4804 9.00391 13.7348 9.00391 14V30C9.00391 30.2652 9.10926 30.5196 9.2968 30.7071C9.48434 30.8946 9.73869 31 10.0039 31H30.0039C30.2691 31 30.5235 30.8946 30.711 30.7071C30.8986 30.5196 31.0039 30.2652 31.0039 30V14C31.0039 13.7348 30.8986 13.4804 30.711 13.2929C30.5235 13.1054 30.2691 13 30.0039 13ZM23.8299 11L20.0039 15.464L16.1779 11H23.8299ZM25.0039 12.7V17.612L21.7319 16.521L25.0039 12.7ZM21.5709 18.573L20.5039 20H19.5039L18.4359 18.576L20.0039 18.054L21.5709 18.573ZM15.0039 12.7L18.2769 16.518L15.0039 17.612V12.7ZM15.2829 29H11.0039V15H13.0039V19C13.0055 19.1578 13.0442 19.3131 13.1169 19.4532C13.1896 19.5933 13.2942 19.7144 13.4223 19.8067C13.5503 19.8989 13.6983 19.9598 13.8542 19.9843C14.0102 20.0089 14.1697 19.9964 14.3199 19.948L16.4369 19.248L17.8899 21.18L15.2829 29ZM17.3909 29L19.7249 22H20.2829L22.6159 29H17.3909ZM29.0039 29H24.7239L22.1179 21.181L23.5709 19.243L25.6879 19.948C25.8381 19.9964 25.9977 20.0089 26.1536 19.9843C26.3095 19.9598 26.4575 19.8989 26.5856 19.8067C26.7136 19.7144 26.8182 19.5933 26.8909 19.4532C26.9636 19.3131 27.0023 19.1578 27.0039 19V15H29.0039V29Z" fill="#EF9E00"/>
</svg>
