<svg width="41" height="40" viewBox="0 0 41 40" fill="none" xmlns="http://www.w3.org/2000/svg">
<rect x="0.00390625" width="40" height="40" rx="10" fill="#FFEDE6"/>
<path d="M20.0033 9C17.9743 9.00102 16.0052 9.68762 14.4154 10.9484C12.8257 12.2091 11.7086 13.9701 11.2455 15.9455C10.7823 17.9209 11.0002 19.9949 11.8639 21.8309C12.7275 23.6669 14.1862 25.1572 16.0033 26.06V27C16.0033 27.2652 16.1086 27.5196 16.2962 27.7071C16.4837 27.8946 16.7381 28 17.0033 28H23.0033C23.2685 28 23.5228 27.8946 23.7104 27.7071C23.8979 27.5196 24.0033 27.2652 24.0033 27V26.06C25.8203 25.1572 27.279 23.6669 28.1427 21.8309C29.0063 19.9949 29.2243 17.9209 28.7611 15.9455C28.2979 13.9701 27.1809 12.2091 25.5911 10.9484C24.0014 9.68762 22.0323 9.00102 20.0033 9ZM22.6273 24.486C22.4428 24.5609 22.2849 24.6891 22.1737 24.8542C22.0625 25.0194 22.0032 25.2139 22.0033 25.413V26H18.0033V25.413C18.0033 25.2138 17.9438 25.0192 17.8324 24.854C17.7211 24.6888 17.5629 24.5607 17.3783 24.486C15.8723 23.8769 14.625 22.763 13.8502 21.3351C13.0754 19.9073 12.8214 18.2544 13.1316 16.6598C13.4419 15.0651 14.2971 13.6281 15.5507 12.5949C16.8043 11.5617 18.3783 10.9966 20.0028 10.9966C21.6273 10.9966 23.2012 11.5617 24.4549 12.5949C25.7085 13.6281 26.5637 15.0651 26.8739 16.6598C27.1842 18.2544 26.9301 19.9073 26.1554 21.3351C25.3806 22.763 24.1333 23.8769 22.6273 24.486ZM17.0033 31C16.7381 31 16.4837 30.8946 16.2962 30.7071C16.1086 30.5196 16.0033 30.2652 16.0033 30C16.0033 29.7348 16.1086 29.4804 16.2962 29.2929C16.4837 29.1054 16.7381 29 17.0033 29H23.0033C23.2685 29 23.5228 29.1054 23.7104 29.2929C23.8979 29.4804 24.0033 29.7348 24.0033 30C24.0033 30.2652 23.8979 30.5196 23.7104 30.7071C23.5228 30.8946 23.2685 31 23.0033 31H17.0033ZM22.4033 17.553C22.4855 17.7196 22.5197 17.9058 22.502 18.0907C22.4844 18.2756 22.4156 18.452 22.3033 18.6L19.3033 22.6C19.1441 22.8122 18.9072 22.9524 18.6447 22.9899C18.3821 23.0275 18.1154 22.9591 17.9033 22.8C17.6911 22.6409 17.5508 22.404 17.5133 22.1414C17.4758 21.8789 17.5441 21.6122 17.7033 21.4L19.5033 19H18.5033C18.3222 19 18.1446 18.9509 17.9893 18.8579C17.834 18.7648 17.7068 18.6314 17.6214 18.4718C17.536 18.3121 17.4955 18.1323 17.5043 17.9515C17.5131 17.7707 17.5708 17.5956 17.6713 17.445L19.6713 14.445C19.8185 14.2243 20.0473 14.0712 20.3074 14.0192C20.5675 13.9673 20.8376 14.0208 21.0583 14.168C21.2789 14.3152 21.4321 14.544 21.484 14.8041C21.536 15.0642 21.4825 15.3343 21.3353 15.555L20.3723 17H21.5033C21.69 16.999 21.8732 17.0502 22.0323 17.148C22.1913 17.2457 22.3198 17.386 22.4033 17.553Z" fill="#FF895B"/>
</svg>
