<svg width="41" height="40" viewBox="0 0 41 40" fill="none" xmlns="http://www.w3.org/2000/svg">
<rect x="0.00390625" width="40" height="40" rx="10" fill="#FFE1E9"/>
<path d="M16.0039 24C16.0039 23.7348 15.8985 23.4804 15.711 23.2929C15.5235 23.1054 15.2691 23 15.0039 23C14.7387 23 14.4843 23.1054 14.2968 23.2929C14.1093 23.4804 14.0039 23.7348 14.0039 24C14.0055 25.3256 14.5328 26.5964 15.4701 27.5338C16.4075 28.4711 17.6783 28.9984 19.0039 29V30C19.0039 30.2652 19.1093 30.5196 19.2968 30.7071C19.4843 30.8946 19.7387 31 20.0039 31C20.2691 31 20.5235 30.8946 20.711 30.7071C20.8985 30.5196 21.0039 30.2652 21.0039 30V29C22.33 29 23.6018 28.4732 24.5394 27.5355C25.4771 26.5979 26.0039 25.3261 26.0039 24C26.0039 22.6739 25.4771 21.4021 24.5394 20.4645C23.6018 19.5268 22.33 19 21.0039 19V13C21.7996 13 22.5626 13.3161 23.1252 13.8787C23.6878 14.4413 24.0039 15.2044 24.0039 16C24.0039 16.2652 24.1093 16.5196 24.2968 16.7071C24.4843 16.8946 24.7387 17 25.0039 17C25.2691 17 25.5235 16.8946 25.711 16.7071C25.8986 16.5196 26.0039 16.2652 26.0039 16C26.0023 14.6744 25.475 13.4036 24.5377 12.4662C23.6003 11.5289 22.3295 11.0016 21.0039 11V10C21.0039 9.73478 20.8985 9.48043 20.711 9.29289C20.5235 9.10536 20.2691 9 20.0039 9C19.7387 9 19.4843 9.10536 19.2968 9.29289C19.1093 9.48043 19.0039 9.73478 19.0039 10V11C17.6778 11 16.4061 11.5268 15.4684 12.4645C14.5307 13.4021 14.0039 14.6739 14.0039 16C14.0039 17.3261 14.5307 18.5979 15.4684 19.5355C16.4061 20.4732 17.6778 21 19.0039 21V27C18.2083 27 17.4452 26.6839 16.8826 26.1213C16.32 25.5587 16.0039 24.7956 16.0039 24ZM21.0039 21C21.7996 21 22.5626 21.3161 23.1252 21.8787C23.6878 22.4413 24.0039 23.2044 24.0039 24C24.0039 24.7956 23.6878 25.5587 23.1252 26.1213C22.5626 26.6839 21.7996 27 21.0039 27V21ZM16.0039 16C16.0039 15.2044 16.32 14.4413 16.8826 13.8787C17.4452 13.3161 18.2083 13 19.0039 13V19C18.2083 19 17.4452 18.6839 16.8826 18.1213C16.32 17.5587 16.0039 16.7956 16.0039 16Z" fill="#FD356F"/>
</svg>
