<svg width="41" height="40" viewBox="0 0 41 40" fill="none" xmlns="http://www.w3.org/2000/svg">
<rect x="0.00390625" width="40" height="40" rx="10" fill="#E7D9F8"/>
<path d="M20.0039 19C20.9928 19 21.9595 18.7068 22.7818 18.1573C23.604 17.6079 24.2449 16.8271 24.6233 15.9134C25.0017 14.9998 25.1008 13.9945 24.9078 13.0246C24.7149 12.0546 24.2387 11.1637 23.5394 10.4645C22.8402 9.76521 21.9493 9.289 20.9794 9.09608C20.0095 8.90315 19.0041 9.00217 18.0905 9.3806C17.1769 9.75904 16.396 10.3999 15.8466 11.2222C15.2972 12.0444 15.0039 13.0111 15.0039 14C15.0055 15.3256 15.5328 16.5964 16.4701 17.5338C17.4075 18.4711 18.6783 18.9984 20.0039 19ZM20.0039 11C20.5972 11 21.1773 11.1759 21.6706 11.5056C22.164 11.8352 22.5485 12.3038 22.7755 12.852C23.0026 13.4001 23.062 14.0033 22.9463 14.5853C22.8305 15.1672 22.5448 15.7018 22.1252 16.1213C21.7057 16.5409 21.1711 16.8266 20.5892 16.9424C20.0072 17.0581 19.404 16.9987 18.8559 16.7716C18.3077 16.5446 17.8391 16.1601 17.5095 15.6667C17.1799 15.1734 17.0039 14.5933 17.0039 14C17.0039 13.2044 17.32 12.4413 17.8826 11.8787C18.4452 11.3161 19.2083 11 20.0039 11ZM12.0039 31H28.0039C28.2691 31 28.5235 30.8946 28.711 30.7071C28.8986 30.5196 29.0039 30.2652 29.0039 30V26C29.0023 24.6744 28.475 23.4036 27.5377 22.4662C26.6003 21.5289 25.3295 21.0016 24.0039 21H16.0039C14.6783 21.0016 13.4075 21.5289 12.4701 22.4662C11.5328 23.4036 11.0055 24.6744 11.0039 26V30C11.0039 30.2652 11.1093 30.5196 11.2968 30.7071C11.4843 30.8946 11.7387 31 12.0039 31ZM13.0039 26C13.0039 25.2044 13.32 24.4413 13.8826 23.8787C14.4452 23.3161 15.2083 23 16.0039 23H24.0039C24.7996 23 25.5626 23.3161 26.1252 23.8787C26.6878 24.4413 27.0039 25.2044 27.0039 26V29H13.0039V26Z" fill="#6001D3"/>
</svg>
