<svg width="25" height="24" viewBox="0 0 25 24" fill="none" xmlns="http://www.w3.org/2000/svg">
<path d="M12.9863 6.865C11.9707 6.865 10.9779 7.16616 10.1335 7.7304C9.28903 8.29464 8.63086 9.09662 8.24221 10.0349C7.85355 10.9732 7.75186 12.0057 7.95 13.0018C8.14813 13.9979 8.63719 14.9129 9.35534 15.631C10.0735 16.3491 10.9884 16.8382 11.9845 17.0363C12.9806 17.2345 14.0131 17.1328 14.9514 16.7441C15.8897 16.3555 16.6917 15.6973 17.2559 14.8529C17.8202 14.0084 18.1213 13.0156 18.1213 12C18.1213 10.6381 17.5803 9.33201 16.6173 8.36901C15.6543 7.40601 14.3482 6.865 12.9863 6.865ZM12.9863 15.334C12.3269 15.334 11.6823 15.1385 11.1341 14.7721C10.5858 14.4058 10.1585 13.8851 9.90611 13.2759C9.65377 12.6667 9.58775 11.9963 9.71639 11.3496C9.84503 10.7028 10.1626 10.1088 10.6288 9.64251C11.0951 9.17624 11.6892 8.8587 12.3359 8.73006C12.9826 8.60142 13.653 8.66744 14.2622 8.91979C14.8714 9.17213 15.3921 9.59946 15.7584 10.1477C16.1248 10.696 16.3203 11.3406 16.3203 12C16.3203 12.8842 15.9691 13.7322 15.3438 14.3575C14.7186 14.9827 13.8706 15.334 12.9863 15.334ZM19.5253 6.662C19.5253 6.89934 19.4549 7.13135 19.3231 7.32868C19.1912 7.52602 19.0038 7.67983 18.7845 7.77066C18.5653 7.86148 18.324 7.88524 18.0912 7.83894C17.8584 7.79264 17.6446 7.67835 17.4768 7.51053C17.309 7.34271 17.1947 7.12889 17.1484 6.89611C17.1021 6.66333 17.1258 6.42205 17.2167 6.20278C17.3075 5.98351 17.4613 5.79609 17.6586 5.66424C17.856 5.53238 18.088 5.462 18.3253 5.462C18.4829 5.462 18.639 5.49304 18.7845 5.55334C18.9301 5.61365 19.0624 5.70204 19.1739 5.81347C19.2853 5.9249 19.3737 6.05719 19.434 6.20278C19.4943 6.34837 19.5253 6.50441 19.5253 6.662ZM22.4623 5.45C22.2107 4.78263 21.817 4.17798 21.3083 3.678C20.8093 3.1694 20.2052 2.7759 19.5383 2.525C18.7612 2.23377 17.9401 2.07687 17.1103 2.061C16.0443 2.012 15.7033 2 12.9863 2C10.2693 2 9.92933 2.011 8.86233 2.061C8.03289 2.07713 7.21222 2.23403 6.43533 2.525C5.76852 2.77607 5.16448 3.16955 4.66533 3.678C4.15582 4.17726 3.76192 4.78212 3.51133 5.45C3.22047 6.22692 3.06358 7.04758 3.04733 7.877C2.99733 8.943 2.98633 9.284 2.98633 12C2.98633 14.716 2.99733 15.057 3.04733 16.123C3.06358 16.9524 3.22047 17.7731 3.51133 18.55C3.76192 19.2179 4.15582 19.8227 4.66533 20.322C5.16508 20.8302 5.76938 21.2236 6.43633 21.475C7.21328 21.7658 8.03391 21.9227 8.86333 21.939C9.93033 21.988 10.2713 22 12.9863 22C15.7013 22 16.0433 21.989 17.1093 21.939C17.9391 21.9228 18.7601 21.7659 19.5373 21.475C20.2017 21.2181 20.8051 20.8252 21.3088 20.3215C21.8125 19.8178 22.2054 19.2144 22.4623 18.55C22.7537 17.7732 22.9106 16.9525 22.9263 16.123C22.9753 15.056 22.9863 14.716 22.9863 12C22.9863 9.284 22.9753 8.943 22.9263 7.877C22.9102 7.04756 22.7533 6.22689 22.4623 5.45ZM21.1273 16.041C21.1214 16.6757 21.006 17.3045 20.7863 17.9C20.6201 18.3319 20.3651 18.7242 20.0378 19.0515C19.7105 19.3787 19.3183 19.6337 18.8863 19.8C18.2915 20.02 17.6634 20.1363 17.0293 20.144C15.9753 20.192 15.6583 20.202 12.9873 20.202C10.3163 20.202 10.0013 20.192 8.94733 20.144C8.31187 20.1368 7.68237 20.0204 7.08633 19.8C6.65194 19.6397 6.25899 19.3841 5.93633 19.052C5.60403 18.7295 5.3484 18.3365 5.18833 17.902C4.96733 17.3075 4.85095 16.6792 4.84433 16.045C4.79833 14.987 4.78633 14.671 4.78633 12C4.78633 9.329 4.79633 9.014 4.84433 7.959C4.85283 7.32405 4.9702 6.69526 5.19133 6.1C5.35165 5.66562 5.60724 5.27266 5.93933 4.95C6.26031 4.61682 6.6524 4.36044 7.08633 4.2C7.68202 3.98003 8.31134 3.86499 8.94633 3.86C10.0003 3.811 10.3173 3.8 12.9863 3.8C15.6553 3.8 15.9733 3.811 17.0283 3.859C17.6626 3.8657 18.291 3.98103 18.8863 4.2C19.3183 4.36626 19.7105 4.62126 20.0378 4.94853C20.3651 5.2758 20.6201 5.66807 20.7863 6.1C21.0073 6.6945 21.1237 7.32278 21.1303 7.957C21.1763 9.014 21.1863 9.33 21.1863 12C21.1863 14.67 21.1763 14.986 21.1273 16.041Z" fill="white"/>
</svg>
