<svg width="41" height="40" viewBox="0 0 41 40" fill="none" xmlns="http://www.w3.org/2000/svg">
<rect x="0.00390625" width="40" height="40" rx="10" fill="#E6FBFF"/>
<path d="M20.0039 9C17.8283 9 15.7016 9.64514 13.8926 10.8538C12.0837 12.0625 10.6738 13.7805 9.84124 15.7905C9.00867 17.8005 8.79084 20.0122 9.21527 22.146C9.63971 24.2798 10.6874 26.2398 12.2257 27.7782C13.7641 29.3166 15.7241 30.3642 17.8579 30.7886C19.9917 31.2131 22.2034 30.9952 24.2134 30.1627C26.2234 29.3301 27.9414 27.9202 29.1501 26.1113C30.3588 24.3023 31.0039 22.1756 31.0039 20C31.0005 17.0837 29.8404 14.2878 27.7783 12.2256C25.7161 10.1635 22.9202 9.00344 20.0039 9ZM20.0039 29C18.2239 29 16.4838 28.4722 15.0038 27.4832C13.5237 26.4943 12.3702 25.0887 11.689 23.4442C11.0078 21.7996 10.8296 19.99 11.1768 18.2442C11.5241 16.4984 12.3813 14.8947 13.6399 13.636C14.8986 12.3774 16.5023 11.5202 18.2481 11.1729C19.9939 10.8257 21.8035 11.0039 23.4481 11.6851C25.0926 12.3663 26.4982 13.5198 27.4871 14.9999C28.4761 16.4799 29.0039 18.22 29.0039 20C29.001 22.3861 28.0519 24.6735 26.3647 26.3607C24.6775 28.0479 22.39 28.9971 20.0039 29ZM18.0039 16L24.0039 20L18.0039 24V16Z" fill="#5B89FF"/>
</svg>
