<svg width="25" height="24" viewBox="0 0 25 24" fill="none" xmlns="http://www.w3.org/2000/svg">
<path d="M20.6293 6.44218C21.4426 6.34707 22.2371 6.13067 22.9863 5.80018C22.4344 6.62505 21.7403 7.34525 20.9363 7.92718C20.9453 8.10318 20.9493 8.27918 20.9493 8.45718C20.9594 9.99286 20.6643 11.5153 20.0812 12.9359C19.4981 14.3566 18.6385 15.6473 17.5524 16.7331C16.4663 17.8188 15.1753 18.6779 13.7544 19.2606C12.3335 19.8432 10.811 20.1378 9.27533 20.1272C7.04544 20.129 4.86217 19.4888 2.98633 18.2832C3.31124 18.3217 3.63814 18.3411 3.96533 18.3412C5.81446 18.3452 7.61106 17.7263 9.06533 16.5842C8.20933 16.568 7.3798 16.2846 6.69274 15.7738C6.00567 15.263 5.49542 14.5502 5.23333 13.7352C5.48821 13.7831 5.74699 13.8072 6.00633 13.8072C6.37109 13.8078 6.73429 13.7597 7.08633 13.6642C6.15708 13.4771 5.32119 12.9743 4.72057 12.241C4.11995 11.5076 3.79163 10.5891 3.79133 9.64118V9.58918C4.36076 9.90623 4.99789 10.0821 5.64933 10.1022C4.78079 9.52172 4.16608 8.63211 3.93033 7.61441C3.69458 6.59671 3.85549 5.52742 4.38033 4.62418C5.41038 5.89177 6.69554 6.92852 8.15235 7.66709C9.60916 8.40566 11.205 8.82953 12.8363 8.91118C12.7663 8.60446 12.731 8.2908 12.7313 7.97618C12.7286 7.15176 12.9745 6.34568 13.437 5.66315C13.8994 4.98062 14.5568 4.45334 15.3234 4.15014C16.0901 3.84694 16.9303 3.7819 17.7345 3.96351C18.5386 4.14512 19.2694 4.56494 19.8313 5.16818C20.7508 4.98623 21.6322 4.648 22.4373 4.16818C22.1312 5.12078 21.4884 5.9292 20.6293 6.44218Z" fill="white"/>
</svg>
