<svg width="25" height="24" viewBox="0 0 25 24" fill="none" xmlns="http://www.w3.org/2000/svg">
<path d="M22.9863 3V21C22.9863 21.2652 22.881 21.5196 22.6934 21.7071C22.5059 21.8946 22.2515 22 21.9863 22H16.7863V14.255H19.3863L19.7763 11.237H16.7863V9.309C16.7863 8.435 17.0283 7.84 18.2863 7.84H19.8863V5.14C19.1127 5.05785 18.3353 5.01813 17.5573 5.021C17.0279 4.98155 16.4963 5.05852 15.9997 5.2465C15.5032 5.43447 15.0539 5.7289 14.6834 6.10908C14.3128 6.48927 14.03 6.94599 13.8548 7.44715C13.6796 7.94831 13.6163 8.48176 13.6693 9.01V11.237H11.0623V14.255H13.6693V22H3.98633C3.72111 22 3.46676 21.8946 3.27922 21.7071C3.09168 21.5196 2.98633 21.2652 2.98633 21V3C2.98633 2.73478 3.09168 2.48043 3.27922 2.29289C3.46676 2.10536 3.72111 2 3.98633 2H21.9863C22.2515 2 22.5059 2.10536 22.6934 2.29289C22.881 2.48043 22.9863 2.73478 22.9863 3Z" fill="white"/>
</svg>
