<svg width="25" height="24" viewBox="0 0 25 24" fill="none" xmlns="http://www.w3.org/2000/svg">
<path d="M9.00225 12.271C8.42133 11.5342 8.06822 10.6437 7.98625 9.70901C7.97934 9.32331 8.05287 8.9404 8.20214 8.58469C8.35142 8.22898 8.57316 7.90828 8.85325 7.64301C8.93609 7.54855 9.03758 7.47225 9.15134 7.4189C9.26509 7.36555 9.38865 7.33631 9.51425 7.33301C9.67925 7.33301 9.84425 7.33301 9.98925 7.34201C10.1343 7.35101 10.3453 7.28401 10.5463 7.76701C10.7473 8.25001 11.2463 9.48201 11.3103 9.60601C11.3495 9.67076 11.3719 9.74432 11.3754 9.81997C11.3789 9.89561 11.3634 9.97092 11.3302 10.039C11.2681 10.1881 11.1849 10.3275 11.0833 10.453C10.9592 10.597 10.8223 10.776 10.7113 10.886C10.6003 10.996 10.4583 11.144 10.6023 11.392C10.9763 12.0289 11.4427 12.6069 11.9862 13.107C12.574 13.6291 13.248 14.045 13.9782 14.336C14.2262 14.46 14.3713 14.436 14.5153 14.274C14.6593 14.112 15.1342 13.551 15.2992 13.303C15.4642 13.055 15.6302 13.097 15.8573 13.179C16.0843 13.261 17.3022 13.861 17.5492 13.985C17.7962 14.109 17.9622 14.171 18.0243 14.274C18.0921 14.6723 18.0421 15.0818 17.8802 15.452C17.6977 15.7528 17.455 16.0127 17.1672 16.2152C16.8795 16.4178 16.553 16.5586 16.2083 16.629C15.6872 16.7179 15.1527 16.6836 14.6473 16.529C14.1678 16.3803 13.6964 16.2064 13.2352 16.008C11.5242 15.1502 10.0656 13.8625 9.00225 12.271ZM3.03125 22L4.43725 16.864C3.34778 14.9734 2.91246 12.7763 3.19879 10.6131C3.48511 8.44997 4.47707 6.4417 6.02088 4.89968C7.5647 3.35766 9.57411 2.36803 11.7376 2.08423C13.9011 1.80042 16.0977 2.2383 17.987 3.32996C19.8763 4.42163 21.3527 6.10609 22.1873 8.12221C23.0218 10.1383 23.1679 12.3734 22.603 14.481C22.038 16.5886 20.7935 18.451 19.0623 19.7793C17.3312 21.1076 15.2103 21.8278 13.0282 21.828C11.3717 21.8283 9.74139 21.4137 8.28625 20.622L3.03125 22ZM4.78625 11.91C4.78379 13.4609 5.22028 14.9808 6.04525 16.294L6.24525 16.606L5.41325 19.646L8.53225 18.828L8.83225 19.006C10.1019 19.7581 11.5506 20.1546 13.0262 20.154C14.6558 20.154 16.2488 19.6708 17.6037 18.7656C18.9587 17.8604 20.0149 16.5737 20.6386 15.0682C21.2624 13.5628 21.4258 11.9062 21.1082 10.3079C20.7906 8.70965 20.0062 7.24141 18.8542 6.08887C17.7022 4.93632 16.2344 4.15123 14.6362 3.83283C13.0381 3.51444 11.3814 3.67705 9.87571 4.3001C8.36998 4.92315 7.08279 5.97867 6.17688 7.33321C5.27098 8.68774 4.78704 10.2805 4.78625 11.91Z" fill="white"/>
</svg>
