<svg width="25" height="24" viewBox="0 0 25 24" fill="none" xmlns="http://www.w3.org/2000/svg">
<path d="M21.0042 13.859V12C21.0042 11.7348 20.8988 11.4804 20.7113 11.2929C20.5237 11.1054 20.2694 11 20.0042 11C19.739 11 19.4846 11.1054 19.2971 11.2929C19.1095 11.4804 19.0042 11.7348 19.0042 12V13H5.00418V4H12.0042C12.2694 4 12.5237 3.89464 12.7113 3.70711C12.8988 3.51957 13.0042 3.26522 13.0042 3C13.0042 2.73478 12.8988 2.48043 12.7113 2.29289C12.5237 2.10536 12.2694 2 12.0042 2H5.00418C4.47374 2 3.96504 2.21071 3.58996 2.58579C3.21489 2.96086 3.00418 3.46957 3.00418 4V13.859L1.04218 20.726C0.999778 20.8748 0.992494 21.0314 1.0209 21.1836C1.0493 21.3357 1.11262 21.4791 1.20586 21.6026C1.29911 21.7261 1.41974 21.8263 1.55827 21.8952C1.6968 21.9642 1.84944 22 2.00418 22H22.0042C22.1589 22 22.3116 21.9642 22.4501 21.8952C22.5886 21.8263 22.7092 21.7261 22.8025 21.6026C22.8957 21.4791 22.9591 21.3357 22.9875 21.1836C23.0159 21.0314 23.0086 20.8748 22.9662 20.726L21.0042 13.859ZM3.33018 20L4.75818 15H19.2502L20.6782 20H3.33018ZM22.6042 4.2H21.9762C21.8931 4.19822 21.8124 4.17153 21.7447 4.12339C21.6769 4.07526 21.6252 4.00788 21.5962 3.93V3.925C21.5623 3.8494 21.5518 3.76537 21.566 3.68375C21.5803 3.60212 21.6186 3.52663 21.6762 3.467L22.1202 3.023C22.1581 2.98576 22.1883 2.94134 22.2088 2.89232C22.2294 2.8433 22.24 2.79066 22.24 2.7375C22.24 2.68434 22.2294 2.6317 22.2088 2.58268C22.1883 2.53366 22.1581 2.48924 22.1202 2.452L21.5592 1.891C21.5219 1.85305 21.4775 1.82291 21.4285 1.80234C21.3795 1.78176 21.3268 1.77116 21.2737 1.77116C21.2205 1.77116 21.1679 1.78176 21.1189 1.80234C21.0698 1.82291 21.0254 1.85305 20.9882 1.891L20.5442 2.335C20.4846 2.39261 20.409 2.43095 20.3273 2.44504C20.2457 2.45913 20.1616 2.44831 20.0862 2.414H20.0802C20.0026 2.3847 19.9355 2.33287 19.8875 2.26516C19.8396 2.19744 19.813 2.11694 19.8112 2.034V1.4C19.8112 1.29391 19.769 1.19217 19.694 1.11716C19.619 1.04214 19.5173 1 19.4112 1H18.6042C18.4981 1 18.3963 1.04214 18.3213 1.11716C18.2463 1.19217 18.2042 1.29391 18.2042 1.4V2.028C18.2023 2.11094 18.1757 2.19144 18.1278 2.25916C18.0799 2.32687 18.0128 2.3787 17.9352 2.408H17.9292C17.8537 2.44231 17.7697 2.45313 17.688 2.43904C17.6063 2.42495 17.5308 2.38661 17.4712 2.329L17.0272 1.885C16.9899 1.84705 16.9455 1.81691 16.8965 1.79633C16.8475 1.77576 16.7948 1.76516 16.7417 1.76516C16.6885 1.76516 16.6359 1.77576 16.5869 1.79633C16.5378 1.81691 16.4934 1.84705 16.4562 1.885L15.8952 2.446C15.8572 2.48324 15.8271 2.52766 15.8065 2.57668C15.7859 2.62571 15.7753 2.67834 15.7753 2.7315C15.7753 2.78466 15.7859 2.8373 15.8065 2.88632C15.8271 2.93534 15.8572 2.97976 15.8952 3.017L16.3392 3.461C16.3967 3.52063 16.4351 3.59612 16.4493 3.67775C16.4636 3.75937 16.4531 3.8434 16.4192 3.919V3.924C16.3902 4.00188 16.3384 4.06926 16.2707 4.11739C16.2029 4.16553 16.1223 4.19222 16.0392 4.194H15.4042C15.2981 4.194 15.1963 4.23614 15.1213 4.31116C15.0463 4.38617 15.0042 4.48791 15.0042 4.594V5.4C15.0042 5.50609 15.0463 5.60783 15.1213 5.68284C15.1963 5.75786 15.2981 5.8 15.4042 5.8H16.0322C16.1151 5.80184 16.1956 5.82843 16.2633 5.87636C16.331 5.9243 16.3829 5.99138 16.4122 6.069V6.075C16.4461 6.1506 16.4566 6.23463 16.4423 6.31625C16.4281 6.39788 16.3897 6.47337 16.3322 6.533L15.8882 6.977C15.8502 7.01424 15.8201 7.05866 15.7995 7.10768C15.7789 7.1567 15.7683 7.20934 15.7683 7.2625C15.7683 7.31566 15.7789 7.3683 15.7995 7.41732C15.8201 7.46634 15.8502 7.51076 15.8882 7.548L16.4492 8.109C16.4864 8.14695 16.5308 8.17709 16.5799 8.19767C16.6289 8.21824 16.6815 8.22884 16.7347 8.22884C16.7878 8.22884 16.8405 8.21824 16.8895 8.19767C16.9385 8.17709 16.9829 8.14695 17.0202 8.109L17.4642 7.665C17.5238 7.60747 17.5993 7.5691 17.6809 7.55484C17.7625 7.54058 17.8466 7.55109 17.9222 7.585H17.9282C18.0059 7.61406 18.0732 7.66584 18.1212 7.7336C18.1691 7.80137 18.1956 7.88199 18.1972 7.965V8.6C18.1972 8.70609 18.2393 8.80783 18.3143 8.88284C18.3893 8.95786 18.4911 9 18.5972 9H19.4042C19.5103 9 19.612 8.95786 19.687 8.88284C19.762 8.80783 19.8042 8.70609 19.8042 8.6V7.968C19.8057 7.88499 19.8322 7.80437 19.8802 7.7366C19.9282 7.66884 19.9954 7.61706 20.0732 7.588H20.0792C20.1548 7.55409 20.2388 7.54358 20.3204 7.55784C20.4021 7.5721 20.4775 7.61047 20.5372 7.668L20.9812 8.112C21.0184 8.14995 21.0628 8.18009 21.1119 8.20067C21.1609 8.22124 21.2135 8.23184 21.2667 8.23184C21.3198 8.23184 21.3725 8.22124 21.4215 8.20067C21.4705 8.18009 21.5149 8.14995 21.5522 8.112L22.1132 7.551C22.1511 7.51376 22.1813 7.46934 22.2018 7.42032C22.2224 7.37129 22.233 7.31866 22.233 7.2655C22.233 7.21234 22.2224 7.1597 22.2018 7.11068C22.1813 7.06166 22.1511 7.01724 22.1132 6.98L21.6692 6.536C21.6116 6.47637 21.5733 6.40088 21.559 6.31925C21.5448 6.23763 21.5553 6.1536 21.5892 6.078V6.072C21.6185 5.99438 21.6703 5.9273 21.738 5.87936C21.8057 5.83143 21.8862 5.80483 21.9692 5.803H22.6042C22.6567 5.803 22.7087 5.79265 22.7572 5.77255C22.8058 5.75245 22.8499 5.72299 22.887 5.68584C22.9242 5.6487 22.9536 5.6046 22.9737 5.55607C22.9938 5.50754 23.0042 5.45553 23.0042 5.403V4.6C23.0042 4.49391 22.962 4.39217 22.887 4.31716C22.812 4.24214 22.7103 4.2 22.6042 4.2ZM19.0042 6.2C18.7668 6.2 18.5348 6.12962 18.3375 5.99776C18.1402 5.86591 17.9863 5.67849 17.8955 5.45922C17.8047 5.23995 17.7809 4.99867 17.8272 4.76589C17.8735 4.53311 17.9878 4.3193 18.1556 4.15147C18.3235 3.98365 18.5373 3.86936 18.7701 3.82306C19.0028 3.77676 19.2441 3.80052 19.4634 3.89134C19.6827 3.98217 19.8701 4.13598 20.0019 4.33332C20.1338 4.53065 20.2042 4.76266 20.2042 5C20.2042 5.31826 20.0777 5.62348 19.8527 5.84853C19.6277 6.07357 19.3224 6.2 19.0042 6.2Z" fill="#2895FF"/>
</svg>
