<svg width="25" height="24" viewBox="0 0 25 24" fill="none" xmlns="http://www.w3.org/2000/svg">
<path d="M3.6191 6.25599L11.6191 9.58899C11.7409 9.64048 11.8718 9.66701 12.0041 9.66701C12.1364 9.66701 12.2673 9.64048 12.3891 9.58899L20.3891 6.25599C20.571 6.17988 20.7263 6.05171 20.8356 5.88757C20.9448 5.72343 21.0031 5.53066 21.0031 5.33349C21.0031 5.13632 20.9448 4.94355 20.8356 4.77941C20.7263 4.61528 20.571 4.4871 20.3891 4.41099L12.3891 1.07699C12.1426 0.974987 11.8656 0.974987 11.6191 1.07699L3.6191 4.41099C3.43721 4.4871 3.28188 4.61528 3.17263 4.77941C3.06339 4.94355 3.0051 5.13632 3.0051 5.33349C3.0051 5.53066 3.06339 5.72343 3.17263 5.88757C3.28188 6.05171 3.43721 6.17988 3.6191 6.25599ZM12.0041 3.08299L17.4041 5.33299L12.0041 7.58299L6.6041 5.33299L12.0041 3.08299ZM20.3891 10.7L12.3891 14.033C12.2671 14.0839 12.1363 14.1101 12.0041 14.1101C11.8719 14.1101 11.7411 14.0839 11.6191 14.033L3.6191 10.7C3.49789 10.6494 3.38783 10.5755 3.29519 10.4824C3.20256 10.3893 3.12917 10.2789 3.07921 10.1574C3.02925 10.036 3.0037 9.90585 3.00403 9.77451C3.00435 9.64318 3.03054 9.5132 3.0811 9.39199C3.13166 9.27078 3.2056 9.16072 3.2987 9.06808C3.39179 8.97545 3.50222 8.90205 3.62368 8.8521C3.74514 8.80214 3.87525 8.77659 4.00658 8.77692C4.13791 8.77724 4.26789 8.80343 4.3891 8.85399L12.0041 12.028L19.6191 8.85499C19.8639 8.75288 20.1392 8.7522 20.3845 8.8531C20.6298 8.95399 20.825 9.1482 20.9271 9.39299C21.0292 9.63779 21.0299 9.91312 20.929 10.1584C20.8281 10.4037 20.6339 10.5989 20.3891 10.701V10.7ZM20.3891 15.144L12.3891 18.478C12.2671 18.5289 12.1363 18.5551 12.0041 18.5551C11.8719 18.5551 11.7411 18.5289 11.6191 18.478L3.6191 15.144C3.49789 15.0934 3.38783 15.0195 3.29519 14.9264C3.20256 14.8333 3.12917 14.7229 3.07921 14.6014C3.02925 14.48 3.0037 14.3498 3.00403 14.2185C3.00435 14.0872 3.03054 13.9572 3.0811 13.836C3.13166 13.7148 3.2056 13.6047 3.2987 13.5121C3.39179 13.4194 3.50222 13.3461 3.62368 13.2961C3.74514 13.2461 3.87525 13.2206 4.00658 13.2209C4.13791 13.2212 4.26789 13.2474 4.3891 13.298L12.0041 16.472L19.6191 13.3C19.8639 13.1979 20.1392 13.1972 20.3845 13.2981C20.6298 13.399 20.825 13.5932 20.9271 13.838C21.0292 14.0828 21.0299 14.3581 20.929 14.6034C20.8281 14.8487 20.6339 15.0439 20.3891 15.146V15.144ZM20.9271 18.281C21.0289 18.5257 21.0294 18.8008 20.9286 19.0458C20.8277 19.2909 20.6337 19.4859 20.3891 19.588L12.3891 22.922C12.2671 22.9729 12.1363 22.9991 12.0041 22.9991C11.8719 22.9991 11.7411 22.9729 11.6191 22.922L3.6191 19.588C3.49438 19.54 3.38055 19.4674 3.28434 19.3746C3.18814 19.2818 3.11151 19.1707 3.05898 19.0478C3.00645 18.9249 2.97909 18.7927 2.97852 18.6591C2.97795 18.5254 3.00418 18.393 3.05566 18.2697C3.10714 18.1463 3.18282 18.0345 3.27823 17.941C3.37364 17.8474 3.48685 17.7738 3.61116 17.7247C3.73547 17.6756 3.86836 17.652 4.00198 17.6551C4.1356 17.6582 4.26723 17.6881 4.3891 17.743L12.0041 20.917L19.6191 17.744C19.7403 17.6934 19.8703 17.6672 20.0016 17.6669C20.133 17.6666 20.2631 17.6921 20.3845 17.7421C20.506 17.792 20.6164 17.8654 20.7095 17.9581C20.8026 18.0507 20.8766 18.1608 20.9271 18.282V18.281Z" fill="#00D5C0"/>
</svg>
