<svg width="25" height="24" viewBox="0 0 25 24" fill="none" xmlns="http://www.w3.org/2000/svg">
<path d="M12.0033 1C9.97429 1.00102 8.00518 1.68762 6.41544 2.94839C4.8257 4.20915 3.70862 5.9701 3.24545 7.94552C2.78228 9.92093 3.0002 11.9949 3.86385 13.8309C4.7275 15.6669 6.1862 17.1572 8.00328 18.06V19C8.00328 19.2652 8.10863 19.5196 8.29617 19.7071C8.48371 19.8946 8.73806 20 9.00328 20H15.0033C15.2685 20 15.5228 19.8946 15.7104 19.7071C15.8979 19.5196 16.0033 19.2652 16.0033 19V18.06C17.8203 17.1572 19.279 15.6669 20.1427 13.8309C21.0063 11.9949 21.2243 9.92093 20.7611 7.94552C20.2979 5.9701 19.1809 4.20915 17.5911 2.94839C16.0014 1.68762 14.0323 1.00102 12.0033 1ZM14.6273 16.486C14.4428 16.5609 14.2849 16.6891 14.1737 16.8542C14.0625 17.0194 14.0032 17.2139 14.0033 17.413V18H10.0033V17.413C10.0033 17.2138 9.94378 17.0192 9.83242 16.854C9.72107 16.6888 9.56293 16.5607 9.37828 16.486C7.87226 15.8769 6.62497 14.763 5.85019 13.3351C5.0754 11.9073 4.82137 10.2544 5.13162 8.65977C5.44187 7.06515 6.29709 5.62808 7.5507 4.59487C8.80431 3.56165 10.3783 2.99662 12.0028 2.99662C13.6273 2.99662 15.2012 3.56165 16.4549 4.59487C17.7085 5.62808 18.5637 7.06515 18.8739 8.65977C19.1842 10.2544 18.9301 11.9073 18.1554 13.3351C17.3806 14.763 16.1333 15.8769 14.6273 16.486ZM9.00328 23C8.73806 23 8.48371 22.8946 8.29617 22.7071C8.10863 22.5196 8.00328 22.2652 8.00328 22C8.00328 21.7348 8.10863 21.4804 8.29617 21.2929C8.48371 21.1054 8.73806 21 9.00328 21H15.0033C15.2685 21 15.5228 21.1054 15.7104 21.2929C15.8979 21.4804 16.0033 21.7348 16.0033 22C16.0033 22.2652 15.8979 22.5196 15.7104 22.7071C15.5228 22.8946 15.2685 23 15.0033 23H9.00328ZM14.4033 9.553C14.4855 9.71958 14.5197 9.90578 14.502 10.0907C14.4844 10.2756 14.4156 10.452 14.3033 10.6L11.3033 14.6C11.1441 14.8122 10.9072 14.9524 10.6447 14.9899C10.3821 15.0275 10.1154 14.9591 9.90328 14.8C9.6911 14.6409 9.55083 14.404 9.51333 14.1414C9.47582 13.8789 9.54415 13.6122 9.70328 13.4L11.5033 11H10.5033C10.3222 11 10.1446 10.9509 9.98927 10.8579C9.83395 10.7648 9.70681 10.6314 9.6214 10.4718C9.53599 10.3121 9.49552 10.1323 9.5043 9.95148C9.51309 9.77065 9.5708 9.5956 9.67128 9.445L11.6713 6.445C11.8185 6.22434 12.0473 6.07119 12.3074 6.01924C12.5675 5.9673 12.8376 6.0208 13.0583 6.168C13.2789 6.3152 13.4321 6.54402 13.484 6.80413C13.536 7.06424 13.4825 7.33434 13.3353 7.555L12.3723 9H13.5033C13.69 8.99898 13.8732 9.05024 14.0323 9.14797C14.1913 9.2457 14.3198 9.386 14.4033 9.553Z" fill="#FF895B"/>
</svg>
