<svg width="101" height="100" viewBox="0 0 101 100" fill="none" xmlns="http://www.w3.org/2000/svg">
<path d="M88.8298 26.2991L89.7769 26.2234C89.7115 26.7371 89.8264 27.3872 90.114 27.9102C90.4428 28.507 90.7753 28.6396 91.0424 28.493C91.8568 28.0447 89.9039 25.8218 91.5206 24.9318C92.2603 24.5246 93.2045 24.7823 93.8863 26.0198C94.188 26.5671 94.3654 27.1985 94.3327 27.743L93.3969 27.8532C93.4044 27.3227 93.2867 26.8445 93.0747 26.4588C92.7459 25.862 92.3957 25.7555 92.122 25.9059C91.3198 26.3477 93.2671 28.5733 91.6691 29.454C90.9415 29.8547 89.9879 29.5941 89.3024 28.3501C88.9223 27.6589 88.7439 26.8492 88.8298 26.2991Z" fill="white"/>
<path d="M94.7491 30.0507L94.1177 28.591L94.9779 28.2192L96.6964 32.1942L95.8362 32.5659L95.2049 31.1061L91.5036 32.706L91.0469 31.6506L94.7491 30.0507Z" fill="white"/>
<path d="M94.3548 33.8554L97.0119 33.0308L97.3528 34.1291L94.7359 34.9416C93.8346 35.2218 93.5834 35.7308 93.7898 36.3949C93.998 37.0664 94.4912 37.3363 95.3924 37.0571L98.0094 36.2445L98.3466 37.3288L95.6894 38.1535C94.2932 38.5869 93.2714 38.0274 92.853 36.6779C92.4346 35.3292 92.9585 34.2888 94.3548 33.8554Z" fill="white"/>
<path d="M98.7319 38.8906L99.1279 41.1134C99.4128 42.7143 98.6441 43.9826 97.1619 44.2469C95.6807 44.5103 94.5207 43.5847 94.2358 41.9848L93.8398 39.7629L98.7319 38.8906ZM95.1548 41.7626C95.3276 42.7339 96.0206 43.2662 96.9574 43.1C97.8942 42.9337 98.3611 42.194 98.1874 41.2227L98.0034 40.1879L94.9699 40.7277L95.1548 41.7626Z" fill="white"/>
<path d="M99.6746 45.0146L99.7754 46.1606L94.8255 46.5949L94.7246 45.4489L99.6746 45.0146Z" fill="white"/>
<path d="M97.4759 47.37C98.9525 47.3943 100.027 48.5617 100 50.1299C99.9752 51.6914 98.8703 52.8309 97.3872 52.8066C95.9041 52.7823 94.8365 51.6083 94.8618 50.0467C94.8889 48.4777 96.0003 47.3457 97.4759 47.37ZM97.4068 51.6419C98.351 51.6569 99.0076 51.0003 99.0216 50.1131C99.0356 49.2258 98.4015 48.5487 97.4572 48.5328C96.513 48.5179 95.8564 49.1744 95.8424 50.0608C95.8284 50.9489 96.4626 51.627 97.4068 51.6419Z" fill="white"/>
<path d="M96.6386 59.1912L96.463 60.227L94.4755 59.8898C94.1607 59.2818 94.0702 58.5039 94.1888 57.8034C94.4503 56.2633 95.699 55.3088 97.1756 55.56C98.6522 55.8112 99.517 57.1235 99.2518 58.6841C99.1061 59.5452 98.6905 60.2093 98.0572 60.5913L97.509 59.7498C97.947 59.4565 98.1927 59.0736 98.2767 58.5767C98.4383 57.625 97.9115 56.8657 96.9804 56.7078C96.0632 56.5519 95.3021 57.0926 95.1433 58.0303C95.091 58.3385 95.0984 58.6346 95.204 58.9475L96.6386 59.1912Z" fill="white"/>
<path d="M96.2051 61.1122C97.6191 61.5381 98.3336 62.9549 97.8806 64.4567C97.4295 65.952 96.0557 66.7459 94.6351 66.3181C93.2146 65.8904 92.5085 64.4689 92.9596 62.9736C93.4126 61.4718 94.7911 60.6863 96.2051 61.1122ZM94.9713 65.2039C95.8754 65.4766 96.6861 65.0236 96.9429 64.1747C97.1988 63.3248 96.773 62.5001 95.8689 62.2274C94.9648 61.9546 94.1541 62.4067 93.8973 63.2566C93.6414 64.1065 94.0673 64.9312 94.9713 65.2039Z" fill="white"/>
<path d="M96.5114 68.2252L96.0584 69.2824L92.3525 67.6937L91.3709 69.9838L90.5098 69.6149L91.9453 66.2676L96.5114 68.2252Z" fill="white"/>
<path d="M93.2541 73.0362L92.1025 72.4058L90.9977 74.4232L90.1879 73.9795L91.2928 71.9622L89.7051 71.0927L90.257 70.084L94.6158 72.4703L92.8124 75.7643L92.0026 75.3207L93.2541 73.0362Z" fill="white"/>
<path d="M86.6802 77.6274L85.9199 77.1053L88.097 73.9336L92.1933 76.7457L90.0686 79.8409L89.3074 79.3188L90.7858 77.1651L89.8967 76.5543L88.591 78.4558L87.8541 77.9496L89.1598 76.0481L88.2119 75.3971L86.6802 77.6274Z" fill="white"/>
<path d="M87.8373 81.1119L88.8619 79.8959L89.5782 80.4992L86.7876 83.8092L86.0712 83.2058L87.0957 81.9898L84.0137 79.3916L84.7543 78.5127L87.8373 81.1119Z" fill="white"/>
<path d="M84.6501 82.5067C85.6672 83.577 85.5869 85.161 84.4503 86.2425C83.3183 87.3185 81.7315 87.3287 80.7098 86.2537C79.6871 85.1788 79.7777 83.5938 80.9096 82.5179C82.0453 81.4373 83.6321 81.4373 84.6501 82.5067ZM81.5522 85.4515C82.2022 86.1361 83.1315 86.1445 83.7741 85.5327C84.4176 84.921 84.4559 83.9936 83.8049 83.309C83.1539 82.6244 82.2256 82.616 81.583 83.2277C80.9405 83.8395 80.9022 84.7669 81.5522 85.4515Z" fill="white"/>
<path d="M78.1505 87.5703C78.4541 87.9906 78.3513 88.5285 77.9544 88.8143C77.5631 89.0964 77.0148 89.0282 76.7113 88.6079C76.4078 88.1876 76.5124 87.6403 76.9037 87.3583C77.3006 87.0715 77.847 87.15 78.1505 87.5703Z" fill="white"/>
<path d="M73.7559 88.796L73.8334 89.743C73.3197 89.6786 72.6697 89.7944 72.1476 90.083C71.5518 90.4127 71.4192 90.7452 71.5667 91.0123C72.016 91.8257 74.236 89.87 75.1279 91.4848C75.536 92.2245 75.2801 93.1688 74.0436 93.8515C73.4972 94.1532 72.8658 94.3325 72.3213 94.3007L72.2093 93.3649C72.7398 93.3714 73.2179 93.2538 73.6027 93.0408C74.1995 92.7111 74.3051 92.3609 74.1547 92.0873C73.712 91.2859 71.4892 93.236 70.6066 91.6399C70.205 90.9133 70.4637 89.9588 71.7068 89.2723C72.397 88.8903 73.2058 88.7101 73.7559 88.796Z" fill="white"/>
<path d="M70.0154 94.72L71.4742 94.0867L71.8469 94.946L67.8748 96.6701L67.5021 95.8108L68.9609 95.1776L67.3555 91.4791L68.4099 91.0215L70.0154 94.72Z" fill="white"/>
<path d="M66.2074 94.3302L67.0368 96.9864L65.9394 97.3291L65.1231 94.7131C64.842 93.8118 64.332 93.5615 63.668 93.7689C62.9974 93.9781 62.7275 94.4712 63.0086 95.3725L63.8249 97.9885L62.7406 98.3266L61.9112 95.6704C61.475 94.2741 62.0345 93.2524 63.3822 92.8312C64.7308 92.4118 65.7712 92.9348 66.2074 94.3302Z" fill="white"/>
<path d="M61.1797 98.7144L58.9578 99.1132C57.3579 99.4009 56.0877 98.6332 55.8225 97.1519C55.5573 95.6707 56.48 94.5097 58.0799 94.223L60.3018 93.8242L61.1797 98.7144ZM58.3022 95.142C57.3308 95.3167 56.7994 96.0106 56.9675 96.9465C57.1356 97.8823 57.8753 98.3483 58.8466 98.1737L59.8805 97.9878L59.336 94.9562L58.3022 95.142Z" fill="white"/>
<path d="M55.0566 99.6654L53.9115 99.7672L53.4707 94.8181L54.6157 94.7163L55.0566 99.6654Z" fill="white"/>
<path d="M52.6654 97.4749C52.6412 98.9515 51.4737 100.026 49.9056 99.9994C48.344 99.9742 47.2055 98.8693 47.2289 97.3862C47.2532 95.9031 48.4271 94.8356 49.9887 94.8608C51.5578 94.8869 52.6897 95.9984 52.6654 97.4749ZM48.3935 97.4049C48.3786 98.3491 49.0352 99.0057 49.9215 99.0197C50.8078 99.0337 51.4859 98.3996 51.5017 97.4553C51.5167 96.5111 50.8601 95.8545 49.9738 95.8405C49.0874 95.8265 48.4085 96.4616 48.3935 97.4049Z" fill="white"/>
<path d="M40.8767 96.6484L39.8409 96.4737L40.1752 94.4853C40.7823 94.1696 41.5612 94.0781 42.2608 94.1958C43.8009 94.4545 44.7572 95.7023 44.5088 97.1798C44.2604 98.6564 42.9491 99.5231 41.3875 99.2607C40.5264 99.1159 39.8624 98.7022 39.4785 98.0689L40.3191 97.5198C40.6123 97.9578 40.9962 98.2025 41.4931 98.2856C42.4448 98.4453 43.2031 97.9186 43.36 96.9874C43.5141 96.0703 42.9725 95.31 42.0348 95.1522C41.7266 95.1008 41.4305 95.1083 41.1176 95.2138L40.8767 96.6484Z" fill="white"/>
<path d="M38.9533 96.2169C38.5293 97.6309 37.1134 98.3472 35.6107 97.8961C34.1145 97.4469 33.3187 96.074 33.7456 94.6534C34.1724 93.2319 35.5929 92.5249 37.0882 92.9732C38.59 93.4253 39.3773 94.8029 38.9533 96.2169ZM34.8598 94.9887C34.588 95.8928 35.0419 96.7035 35.8918 96.9584C36.7417 97.2134 37.5664 96.7866 37.8382 95.8825C38.11 94.9784 37.6561 94.1678 36.8062 93.9128C35.9562 93.6578 35.1316 94.0846 34.8598 94.9887Z" fill="white"/>
<path d="M31.8414 96.5325L30.7841 96.0814L32.3672 92.3736L30.0762 91.3948L30.4442 90.5337L33.7924 91.9636L31.8414 96.5325Z" fill="white"/>
<path d="M27.0259 93.2843L27.6554 92.1318L25.6371 91.0297L26.0789 90.22L28.0972 91.3221L28.9639 89.7334L29.9735 90.2844L27.5928 94.646L24.2969 92.8472L24.7386 92.0375L27.0259 93.2843Z" fill="white"/>
<path d="M22.4236 86.7138L22.9447 85.9526L26.1193 88.126L23.3118 92.226L20.2129 90.105L20.734 89.3439L22.8896 90.8195L23.4995 89.9294L21.5961 88.6256L22.1014 87.8878L24.0048 89.1907L24.6548 88.2418L22.4236 86.7138Z" fill="white"/>
<path d="M18.9423 87.8757L20.1592 88.8984L19.5559 89.6157L16.2422 86.8297L16.8455 86.1124L18.0625 87.1351L20.657 84.0493L21.5368 84.789L18.9423 87.8757Z" fill="white"/>
<path d="M17.5429 84.6912C16.4745 85.7102 14.8896 85.6317 13.8071 84.497C12.7293 83.3669 12.7172 81.7801 13.7912 80.7564C14.8653 79.7328 16.4493 79.8206 17.5271 80.9507C18.6095 82.0864 18.6114 83.6723 17.5429 84.6912ZM14.5944 81.5989C13.9108 82.2499 13.9042 83.1791 14.516 83.8208C15.1277 84.4624 16.0561 84.4998 16.7397 83.8488C17.4234 83.1978 17.4299 82.2685 16.8182 81.6269C16.2064 80.9853 15.2781 80.947 14.5944 81.5989Z" fill="white"/>
<path d="M12.4707 78.2C12.0504 78.5036 11.5134 78.4018 11.2257 78.0048C10.9427 77.6135 11.0109 77.0653 11.4303 76.7617C11.8505 76.4582 12.3978 76.5609 12.6808 76.9523C12.9685 77.3492 12.89 77.8965 12.4707 78.2Z" fill="white"/>
<path d="M11.2405 73.8067L10.2935 73.8851C10.357 73.3705 10.2412 72.7214 9.95166 72.2003C9.62104 71.6044 9.28855 71.4727 9.02144 71.6203C8.20796 72.0714 10.1674 74.2877 8.55352 75.1824C7.81476 75.5924 6.8696 75.3365 6.185 74.1018C5.8824 73.5555 5.70307 72.9241 5.73389 72.3796L6.66972 72.2666C6.66412 72.7971 6.78273 73.2753 6.99567 73.6601C7.3263 74.2559 7.67653 74.3615 7.95018 74.2102C8.75058 73.7665 6.79767 71.5456 8.39287 70.6611C9.11949 70.2586 10.074 70.5164 10.7623 71.7585C11.1443 72.4487 11.3246 73.2575 11.2405 73.8067Z" fill="white"/>
<path d="M5.31032 70.0728L5.94542 71.5307L5.08618 71.9053L3.35742 67.9359L4.21666 67.5614L4.85176 69.0193L8.54743 67.4092L9.00694 68.4636L5.31032 70.0728Z" fill="white"/>
<path d="M5.69444 66.266L3.0392 67.0981L2.6955 66.0007L5.30965 65.1807C6.21092 64.8986 6.4603 64.3887 6.25202 63.7247C6.04188 63.0541 5.54781 62.7851 4.64747 63.0672L2.03332 63.8872L1.69336 62.8038L4.34861 61.9716C5.74395 61.5345 6.76663 62.0912 7.18971 63.4389C7.61093 64.7875 7.08978 65.8289 5.69444 66.266Z" fill="white"/>
<path d="M1.30389 61.243L0.902278 59.022C0.612751 57.4222 1.37859 56.152 2.85892 55.8839C4.33925 55.6159 5.50203 56.5377 5.79155 58.1376L6.19316 60.3585L1.30389 61.243ZM4.87161 58.3617C4.69602 57.3913 4.00116 56.8599 3.06533 57.0299C2.1295 57.1989 1.66439 57.9396 1.83998 58.9109L2.02677 59.9448L5.0584 59.3966L4.87161 58.3617Z" fill="white"/>
<path d="M0.345856 55.1237L0.242188 53.9786L5.1903 53.5312L5.29397 54.6763L0.345856 55.1237Z" fill="white"/>
<path d="M2.61561 52.8129C1.13902 52.8372 0.0276079 51.7053 0.00239099 50.1362C-0.0228259 48.5746 1.04376 47.4006 2.52689 47.3764C4.01002 47.3521 5.11489 48.4915 5.1401 50.0531C5.16626 51.6212 4.0922 52.7887 2.61561 52.8129ZM2.5465 48.5401C1.60226 48.555 0.967171 49.2331 0.982114 50.1203C0.996123 51.0076 1.65363 51.6642 2.59693 51.6483C3.54117 51.6333 4.17626 50.9553 4.16132 50.068C4.14731 49.1817 3.49073 48.5251 2.5465 48.5401Z" fill="white"/>
<path d="M3.34062 40.9378L3.5134 39.9011L5.5018 40.2326C5.81841 40.8397 5.91181 41.6177 5.79506 42.3182C5.53823 43.8583 4.29232 44.8165 2.8148 44.5699C1.33727 44.3234 0.469627 43.013 0.729268 41.4515C0.873098 40.5903 1.28591 39.9254 1.9182 39.5415L2.46924 40.3821C2.03121 40.6763 1.78744 41.0601 1.70525 41.557C1.54648 42.5096 2.0751 43.2661 3.00626 43.4221C3.92341 43.5753 4.68272 43.0326 4.83963 42.094C4.89099 41.7858 4.88258 41.4897 4.77705 41.1769L3.34062 40.9378Z" fill="white"/>
<path d="M3.76879 39.0137C2.35384 38.5915 1.63563 37.1766 2.08393 35.6738C2.53036 34.1776 3.90234 33.3791 5.32383 33.804C6.74532 34.229 7.45513 35.6477 7.0087 37.1448C6.5604 38.6476 5.18373 39.4358 3.76879 39.0137ZM4.99135 34.9192C4.08634 34.6493 3.27659 35.1041 3.02255 35.954C2.76852 36.8039 3.19721 37.6286 4.10128 37.8985C5.00629 38.1684 5.81603 37.7145 6.07006 36.8637C6.3241 36.0138 5.89635 35.1891 4.99135 34.9192Z" fill="white"/>
<path d="M3.44531 31.9006L3.89549 30.8425L7.60517 32.4208L8.58022 30.1289L9.44226 30.496L8.01705 33.8461L3.44531 31.9006Z" fill="white"/>
<path d="M6.68601 27.0825L7.83946 27.7102L8.93873 25.69L9.7494 26.1308L8.65013 28.151L10.2397 29.0158L9.69056 30.0255L5.32617 27.6513L7.12031 24.3535L7.93099 24.7943L6.68601 27.0825Z" fill="white"/>
<path d="M13.2506 22.4727L14.0127 22.9929L11.8441 26.1702L7.74023 23.3693L9.85753 20.2676L10.6196 20.7878L9.14678 22.9452L10.0378 23.5532L11.3388 21.648L12.0775 22.1523L10.7775 24.0576L11.7273 24.7058L13.2506 22.4727Z" fill="white"/>
<path d="M12.0837 18.9905L11.062 20.2093L10.3438 19.6069L13.126 16.2886L13.8442 16.891L12.8225 18.1098L15.912 20.6997L15.1733 21.5813L12.0837 18.9905Z" fill="white"/>
<path d="M15.2667 17.5879C14.2468 16.5204 14.3224 14.9364 15.4563 13.8521C16.5845 12.7733 18.1713 12.7584 19.1968 13.8306C20.2223 14.9028 20.1364 16.4877 19.0072 17.5664C17.8734 18.6507 16.2875 18.6554 15.2667 17.5879ZM18.3553 14.6347C17.7025 13.952 16.7741 13.9464 16.1334 14.56C15.4918 15.1736 15.4563 16.101 16.1082 16.7838C16.7601 17.4665 17.6894 17.4721 18.3301 16.8585C18.9717 16.2458 19.0081 15.3174 18.3553 14.6347Z" fill="white"/>
<path d="M21.7501 12.5059C21.4456 12.0866 21.5465 11.5486 21.9434 11.261C22.3338 10.977 22.883 11.0443 23.1865 11.4636C23.491 11.883 23.3882 12.4312 22.9978 12.7142C22.6018 13.0028 22.0545 12.9262 21.7501 12.5059Z" fill="white"/>
<path d="M26.1407 11.2695L26.0613 10.3234C26.5759 10.3869 27.225 10.2693 27.7461 9.97973C28.342 9.64817 28.4737 9.31568 28.3252 9.04857C27.8731 8.23602 25.6587 10.1983 24.7621 8.58533C24.3512 7.8475 24.6052 6.9014 25.8399 6.21494C26.3863 5.9114 27.0167 5.73115 27.5612 5.76103L27.6751 6.69686C27.1447 6.69126 26.6665 6.8108 26.2817 7.02468C25.6858 7.35624 25.5812 7.70647 25.7325 7.98012C26.178 8.78052 28.3952 6.82388 29.2825 8.41815C29.686 9.14383 29.4291 10.0993 28.1888 10.7895C27.4996 11.1715 26.6908 11.3536 26.1407 11.2695Z" fill="white"/>
<path d="M29.8676 5.33506L28.4106 5.97202L28.0352 5.11371L32.0017 3.37842L32.3771 4.23673L30.9202 4.87369L32.5359 8.5675L31.4824 9.02794L29.8676 5.33506Z" fill="white"/>
<path d="M33.6777 5.71327L32.8418 3.05896L33.9383 2.7134L34.762 5.32661C35.0459 6.22695 35.5559 6.47538 36.219 6.26711C36.8896 6.05604 37.1576 5.56197 36.8737 4.66163L36.0499 2.04842L37.1333 1.70752L37.9692 4.36183C38.4091 5.75624 37.8525 6.77986 36.5057 7.20481C35.1589 7.62789 34.1167 7.10861 33.6777 5.71327Z" fill="white"/>
<path d="M38.6953 1.31528L40.9163 0.910874C42.5152 0.619479 43.7873 1.38346 44.0572 2.86378C44.3271 4.34411 43.4062 5.50783 41.8073 5.79922L39.5863 6.20363L38.6953 1.31528ZM41.5822 4.8802C42.5526 4.70368 43.0831 4.00789 42.9121 3.07206C42.7412 2.13623 42.0006 1.67299 41.0302 1.84951L39.9963 2.03816L40.5483 5.06886L41.5822 4.8802Z" fill="white"/>
<path d="M44.8125 0.347723L45.9575 0.242188L46.4124 5.1903L45.2673 5.29584L44.8125 0.347723Z" fill="white"/>
<path d="M47.1215 2.61366C47.0972 1.138 48.2292 0.0256548 49.7982 0.000437866C51.3598 -0.024779 52.5338 1.0418 52.5581 2.52493C52.5824 4.00806 51.4429 5.11293 49.8813 5.13815C48.3123 5.1643 47.1448 4.08931 47.1215 2.61366ZM51.3934 2.54361C51.3785 1.59938 50.7004 0.965219 49.8132 0.979229C48.9259 0.993238 48.2693 1.65075 48.2852 2.59405C48.3002 3.53828 48.9782 4.17337 49.8655 4.15843C50.7527 4.14348 51.4093 3.48784 51.3934 2.54361Z" fill="white"/>
<path d="M59.0041 3.32727L60.0408 3.49912L59.7121 5.48751C59.1059 5.80413 58.327 5.89846 57.6275 5.78265C56.0865 5.52768 55.1273 4.28271 55.372 2.80518C55.6167 1.32766 56.9261 0.458142 58.4877 0.715915C59.3488 0.858811 60.0147 1.27069 60.3995 1.90298L59.5598 2.45495C59.2657 2.01785 58.8809 1.77409 58.384 1.6919C57.4313 1.53406 56.6748 2.06362 56.5207 2.99571C56.3694 3.91286 56.9121 4.67217 57.8507 4.82721C58.1589 4.87858 58.455 4.86924 58.7679 4.76276L59.0041 3.32727Z" fill="white"/>
<path d="M60.9246 3.75233C61.3449 2.33645 62.7589 1.61636 64.2626 2.0628C65.7597 2.50736 66.5601 3.87842 66.1371 5.2999C65.7149 6.72232 64.2962 7.434 62.7991 6.98944C61.2954 6.543 60.5043 5.16821 60.9246 3.75233ZM65.021 4.96928C65.29 4.06427 64.8342 3.25453 63.9833 3.00236C63.1325 2.75019 62.3088 3.17888 62.0407 4.08388C61.7717 4.98889 62.2275 5.7977 63.0783 6.0508C63.9292 6.30297 64.7529 5.87429 65.021 4.96928Z" fill="white"/>
<path d="M68.0375 3.41699L69.0966 3.86623L67.5229 7.57872L69.8167 8.55097L69.4506 9.41395L66.0977 7.99246L68.0375 3.41699Z" fill="white"/>
<path d="M72.861 6.65286L72.2353 7.80723L74.2564 8.9037L73.8165 9.71438L71.7954 8.61791L70.9324 10.2094L69.9219 9.66114L72.2904 5.29395L75.591 7.08341L75.1511 7.89409L72.861 6.65286Z" fill="white"/>
<path d="M77.4807 13.2111L76.9614 13.9742L73.7812 11.8093L76.5775 7.70264L79.6811 9.81619L79.1618 10.5792L77.0025 9.10918L76.3954 10.0011L78.3025 11.2993L77.7991 12.039L75.892 10.7408L75.2448 11.6916L77.4807 13.2111Z" fill="white"/>
<path d="M80.9611 12.0403L79.7414 11.0204L80.3429 10.3013L83.6649 13.0789L83.0635 13.798L81.8437 12.7781L79.2576 15.8714L78.375 15.1336L80.9611 12.0403Z" fill="white"/>
<path d="M82.3665 15.2194C83.4322 14.1977 85.0171 14.2714 86.1033 15.4043C87.1839 16.5316 87.2007 18.1184 86.1295 19.1458C85.0582 20.1722 83.4733 20.0891 82.3927 18.9609C81.3065 17.828 81.2999 16.2412 82.3665 15.2194ZM85.3234 18.3043C86.0052 17.6505 86.0099 16.7222 85.3954 16.0815C84.7817 15.4408 83.8534 15.4062 83.1716 16.059C82.4898 16.7119 82.4851 17.6412 83.0997 18.2819C83.7142 18.9235 84.6416 18.9581 85.3234 18.3043Z" fill="white"/>
<path d="M87.4575 21.6982C87.8769 21.3937 88.4148 21.4937 88.7025 21.8897C88.9864 22.2801 88.9201 22.8283 88.5007 23.1337C88.0814 23.4382 87.5341 23.3364 87.2502 22.9469C86.9625 22.55 87.0382 22.0036 87.4575 21.6982Z" fill="white"/>
<path d="M71.9579 49.2433C71.787 49.2499 71.7431 49.3209 71.6936 49.3834C70.529 50.7498 69.0907 51.7501 67.5001 52.5467C66.2169 53.1884 64.8757 53.6796 63.5457 54.2027C57.1416 56.7122 54.9748 57.9264 48.5949 60.5041C48.268 60.6348 47.9411 60.7591 47.5993 60.8525C47.1538 60.9739 46.8111 60.731 46.7896 60.2669C46.7812 60.0801 46.7522 59.8933 46.7625 59.7093C46.8493 58.0496 46.8026 56.39 46.7961 54.7313C46.7961 54.3175 46.7961 53.9001 46.7989 53.4863C46.7989 53.2594 46.8054 53.0287 46.8054 52.8017C46.7896 51.37 46.1545 50.3482 44.8096 49.7944C43.3152 49.178 41.8237 48.5522 40.3303 47.9358C38.3746 47.1298 36.4198 46.3294 34.4613 45.5318C34.0971 45.3823 33.7328 45.2329 33.3275 45.2329C32.7615 45.2329 32.4159 45.4664 32.2814 46.0109C32.2133 46.2883 32.1946 46.5872 32.1908 46.8729C32.1694 48.47 32.1507 50.0671 32.1469 51.6642C32.1376 55.7334 32.1217 59.7999 32.1376 63.8691C32.147 66.1732 32.2058 68.4736 32.2497 70.7776C32.2646 71.5715 32.4057 72.3467 32.6578 73.0976C33.3331 75.1149 34.6901 76.4916 36.6738 77.2322C38.0935 77.7646 39.5701 77.9168 41.0793 77.7926C42.0824 77.7086 43.035 77.4377 43.9718 77.1015C44.1679 77.0333 44.3613 76.9586 44.5509 76.8708C47.2818 75.6071 50.1303 74.6414 52.9322 73.558C56.8735 72.032 56.5812 71.8078 60.5225 70.2826C62.0486 69.6914 63.5859 69.1273 65.084 68.4614C66.2832 67.9263 67.4226 67.2968 68.4472 66.4684C70.769 64.5883 71.9336 62.1441 71.9841 59.1676C71.9999 58.2775 71.9589 57.3837 71.9589 56.4899C71.956 54.2886 71.9654 52.091 71.9682 49.8896C71.9579 49.6851 71.9579 49.4768 71.9579 49.2433Z" fill="white"/>
<path d="M32.134 29.0055C32.2144 30.6212 32.2732 32.237 32.1863 33.8565C32.1807 34.0031 32.1807 34.146 32.1835 34.2926C32.2153 35.2611 32.657 35.9924 33.4696 36.5061C33.803 36.7181 34.1663 36.8675 34.5343 37.0132C38.6717 38.657 42.8129 40.298 46.9504 41.9483C51.9349 43.9348 56.9167 45.9242 61.8984 47.92C62.7922 48.2777 63.7075 48.4963 64.676 48.5084C67.3723 48.5392 70.2237 46.8516 71.1894 43.7443C72.2663 40.2756 70.5198 36.7331 67.3284 35.419C64.859 34.401 62.3719 33.4231 59.8895 32.4266C51.8537 29.2007 43.7684 26.0999 35.7046 22.9525C35.2217 22.7629 34.7398 22.5724 34.256 22.3921C33.9637 22.2828 33.6676 22.196 33.3528 22.1708C32.7056 22.1213 32.3881 22.3417 32.2414 22.9833C32.1854 23.2261 32.1378 23.4755 32.1359 23.7211C32.1303 25.4779 32.134 27.2403 32.134 29.0055Z" fill="#FF6900"/>
</svg>
