<svg width="25" height="24" viewBox="0 0 25 24" fill="none" xmlns="http://www.w3.org/2000/svg">
<path d="M12.0039 1C9.82832 1 7.70158 1.64514 5.89264 2.85383C4.0837 4.06253 2.6738 5.78049 1.84124 7.79048C1.00867 9.80047 0.790836 12.0122 1.21527 14.146C1.63971 16.2798 2.68736 18.2398 4.22574 19.7782C5.76411 21.3166 7.72413 22.3642 9.85792 22.7886C11.9917 23.2131 14.2034 22.9952 16.2134 22.1627C18.2234 21.3301 19.9414 19.9202 21.1501 18.1113C22.3588 16.3023 23.0039 14.1756 23.0039 12C23.0005 9.08367 21.8404 6.28778 19.7783 4.22563C17.7161 2.16347 14.9202 1.00344 12.0039 1ZM12.0039 21C10.2239 21 8.48382 20.4722 7.00378 19.4832C5.52374 18.4943 4.37018 17.0887 3.689 15.4442C3.00781 13.7996 2.82958 11.99 3.17684 10.2442C3.52411 8.49836 4.38128 6.89471 5.63995 5.63604C6.89862 4.37737 8.50227 3.5202 10.2481 3.17293C11.9939 2.82567 13.8035 3.0039 15.4481 3.68508C17.0926 4.36627 18.4982 5.51983 19.4871 6.99987C20.4761 8.47991 21.0039 10.22 21.0039 12C21.001 14.3861 20.0519 16.6735 18.3647 18.3607C16.6775 20.0479 14.39 20.9971 12.0039 21ZM10.0039 8L16.0039 12L10.0039 16V8Z" fill="#5B89FF"/>
</svg>
