<svg width="25" height="24" viewBox="0 0 25 24" fill="none" xmlns="http://www.w3.org/2000/svg">
<path d="M12.0039 11C12.9928 11 13.9595 10.7068 14.7818 10.1573C15.604 9.60794 16.2449 8.82705 16.6233 7.91342C17.0017 6.99979 17.1008 5.99446 16.9078 5.02455C16.7149 4.05465 16.2387 3.16373 15.5394 2.46447C14.8402 1.76521 13.9493 1.289 12.9794 1.09608C12.0095 0.90315 11.0041 1.00217 10.0905 1.3806C9.17686 1.75904 8.39597 2.39991 7.84656 3.22215C7.29715 4.0444 7.00391 5.0111 7.00391 6C7.00549 7.3256 7.53279 8.59644 8.47013 9.53378C9.40746 10.4711 10.6783 10.9984 12.0039 11V11ZM12.0039 3C12.5973 3 13.1773 3.17595 13.6706 3.50559C14.164 3.83524 14.5485 4.30377 14.7755 4.85195C15.0026 5.40013 15.062 6.00333 14.9463 6.58527C14.8305 7.16722 14.5448 7.70177 14.1252 8.12132C13.7057 8.54088 13.1711 8.8266 12.5892 8.94236C12.0072 9.05811 11.404 8.9987 10.8559 8.77164C10.3077 8.54458 9.83914 8.16006 9.5095 7.66671C9.17985 7.17337 9.00391 6.59335 9.00391 6C9.00391 5.20435 9.31998 4.44129 9.88259 3.87868C10.4452 3.31607 11.2083 3 12.0039 3V3ZM4.00391 23H20.0039C20.2691 23 20.5235 22.8946 20.711 22.7071C20.8986 22.5196 21.0039 22.2652 21.0039 22V18C21.0023 16.6744 20.475 15.4036 19.5377 14.4662C18.6003 13.5289 17.3295 13.0016 16.0039 13H8.00391C6.67831 13.0016 5.40746 13.5289 4.47013 14.4662C3.53279 15.4036 3.00549 16.6744 3.00391 18V22C3.00391 22.2652 3.10926 22.5196 3.2968 22.7071C3.48434 22.8946 3.73869 23 4.00391 23ZM5.00391 18C5.00391 17.2044 5.31998 16.4413 5.88259 15.8787C6.4452 15.3161 7.20826 15 8.00391 15H16.0039C16.7996 15 17.5626 15.3161 18.1252 15.8787C18.6878 16.4413 19.0039 17.2044 19.0039 18V21H5.00391V18Z" fill="#6001D3"/>
</svg>
