<svg width="25" height="24" viewBox="0 0 25 24" fill="none" xmlns="http://www.w3.org/2000/svg">
<path d="M4.00391 23C3.73869 23 3.48434 22.8946 3.2968 22.7071C3.10926 22.5196 3.00391 22.2652 3.00391 22V19C3.00391 18.7348 3.10926 18.4804 3.2968 18.2929C3.48434 18.1054 3.73869 18 4.00391 18C4.26912 18 4.52348 18.1054 4.71101 18.2929C4.89855 18.4804 5.00391 18.7348 5.00391 19V22C5.00391 22.2652 4.89855 22.5196 4.71101 22.7071C4.52348 22.8946 4.26912 23 4.00391 23ZM13.0039 22V15C13.0039 14.7348 12.8985 14.4804 12.711 14.2929C12.5235 14.1054 12.2691 14 12.0039 14C11.7387 14 11.4843 14.1054 11.2968 14.2929C11.1093 14.4804 11.0039 14.7348 11.0039 15V22C11.0039 22.2652 11.1093 22.5196 11.2968 22.7071C11.4843 22.8946 11.7387 23 12.0039 23C12.2691 23 12.5235 22.8946 12.711 22.7071C12.8985 22.5196 13.0039 22.2652 13.0039 22ZM20.0039 11C19.7387 11 19.4843 11.1054 19.2968 11.2929C19.1093 11.4804 19.0039 11.7348 19.0039 12V22C19.0039 22.2652 19.1093 22.5196 19.2968 22.7071C19.4843 22.8946 19.7387 23 20.0039 23C20.2691 23 20.5235 22.8946 20.711 22.7071C20.8986 22.5196 21.0039 22.2652 21.0039 22V12C21.0039 11.7348 20.8986 11.4804 20.711 11.2929C20.5235 11.1054 20.2691 11 20.0039 11ZM20.3859 1.077C20.2649 1.0263 20.1351 1.00013 20.0039 1H16.0039C15.7387 1 15.4843 1.10536 15.2968 1.29289C15.1093 1.48043 15.0039 1.73478 15.0039 2C15.0039 2.26522 15.1093 2.51957 15.2968 2.70711C15.4843 2.89464 15.7387 3 16.0039 3H17.5899L12.0039 8.586L8.71091 5.293C8.52338 5.10553 8.26907 5.00021 8.00391 5.00021C7.73874 5.00021 7.48443 5.10553 7.29691 5.293L3.29691 9.293C3.11475 9.4816 3.01395 9.7342 3.01623 9.9964C3.01851 10.2586 3.12368 10.5094 3.30909 10.6948C3.4945 10.8802 3.74531 10.9854 4.0075 10.9877C4.2697 10.99 4.5223 10.8892 4.71091 10.707L8.00391 7.414L11.2969 10.707C11.4844 10.8945 11.7387 10.9998 12.0039 10.9998C12.2691 10.9998 12.5234 10.8945 12.7109 10.707L19.0039 4.414V6C19.0039 6.26522 19.1093 6.51957 19.2968 6.70711C19.4843 6.89464 19.7387 7 20.0039 7C20.2691 7 20.5235 6.89464 20.711 6.70711C20.8986 6.51957 21.0039 6.26522 21.0039 6V2C21.0037 1.80229 20.9448 1.60909 20.8348 1.4448C20.7248 1.28052 20.5686 1.15252 20.3859 1.077Z" fill="#00C47A"/>
</svg>
