<svg width="25" height="24" viewBox="0 0 25 24" fill="none" xmlns="http://www.w3.org/2000/svg">
<path d="M22.0039 5H19.0039V2C18.9961 1.73725 18.8883 1.4874 18.7024 1.30152C18.5165 1.11565 18.2667 1.00779 18.0039 1H6.00391C5.74116 1.00779 5.4913 1.11565 5.30543 1.30152C5.11955 1.4874 5.01169 1.73725 5.00391 2V5H2.00391C1.73869 5 1.48434 5.10536 1.2968 5.29289C1.10926 5.48043 1.00391 5.73478 1.00391 6V22C1.00391 22.2652 1.10926 22.5196 1.2968 22.7071C1.48434 22.8946 1.73869 23 2.00391 23H22.0039C22.2691 23 22.5235 22.8946 22.711 22.7071C22.8986 22.5196 23.0039 22.2652 23.0039 22V6C23.0039 5.73478 22.8986 5.48043 22.711 5.29289C22.5235 5.10536 22.2691 5 22.0039 5ZM15.8299 3L12.0039 7.464L8.17791 3H15.8299ZM17.0039 4.7V9.612L13.7319 8.521L17.0039 4.7ZM13.5709 10.573L12.5039 12H11.5039L10.4359 10.576L12.0039 10.054L13.5709 10.573ZM7.00391 4.7L10.2769 8.518L7.00391 9.612V4.7ZM7.28291 21H3.00391V7H5.00391V11C5.00554 11.1578 5.04425 11.3131 5.11692 11.4532C5.18959 11.5933 5.29418 11.7144 5.42226 11.8067C5.55034 11.8989 5.69831 11.9598 5.85424 11.9843C6.01016 12.0089 6.16968 11.9964 6.31991 11.948L8.43691 11.248L9.88991 13.18L7.28291 21ZM9.39091 21L11.7249 14H12.2829L14.6159 21H9.39091ZM21.0039 21H16.7239L14.1179 13.181L15.5709 11.243L17.6879 11.948C17.8381 11.9964 17.9977 12.0089 18.1536 11.9843C18.3095 11.9598 18.4575 11.8989 18.5856 11.8067C18.7136 11.7144 18.8182 11.5933 18.8909 11.4532C18.9636 11.3131 19.0023 11.1578 19.0039 11V7H21.0039V21Z" fill="#EF9E00"/>
</svg>
